<svg width="58" height="61" viewBox="0 0 58 61" fill="none" xmlns="http://www.w3.org/2000/svg">
<g clip-path="url(#clip0_1218_122)">
<path d="M1 34.8647H8.09959L12.5993 43.4476L17.1824 48.3807L23.0321 50.9139L29.6483 52.3638L39.7644 49.4139L45.3141 44.5809L48.7639 37.9979L49.2972 34.8647H57.3634L55.9802 39.5145L54.3136 44.5809L48.7639 52.3638L39.7644 57.6468L33.7814 58.8634L27.7485 59.1967L21.8655 58.5134L15.5492 56.5135L8.09959 50.8139L2.56658 42.4977L1 34.8647Z" fill="white"/>
<path d="M11.316 10.4329H45.6974V25.2154V32.9316L44.0475 39.4812L37.5479 45.9809L29.215 48.3474L23.3487 47.1975L18.0656 44.6476L12.466 36.6147L11.316 10.4329Z" fill="white"/>
<path d="M57.37 34.9448V34.9882C57.36 35.2181 57.3033 35.4448 57.2633 35.6681C57.14 36.3114 57.0067 36.9514 56.8533 37.5913C56.4467 39.3013 55.9267 40.9745 55.2768 42.6077C54.9168 43.5144 54.5135 44.401 54.0668 45.2709C53.2835 46.7975 52.3703 48.2441 51.3137 49.594C50.8004 50.254 50.2537 50.8873 49.6738 51.4906C48.7871 52.4205 47.8339 53.2771 46.8172 54.0571C45.6473 54.9537 44.4074 55.7403 43.1008 56.427C41.8309 57.0903 40.5176 57.6502 39.161 58.1102C38.3511 58.3869 37.5311 58.6235 36.7012 58.8302C35.9745 59.0102 35.2379 59.1668 34.498 59.2935C34.038 59.3735 33.578 59.4401 33.118 59.5001C32.7014 59.5535 32.2814 59.5935 31.8648 59.6335C31.3915 59.6801 30.9182 59.7135 30.4415 59.7301C30.2982 59.7368 30.1515 59.7434 29.9816 59.7534C29.8882 59.7568 29.8182 59.7535 29.7516 59.7601C29.7149 59.7634 29.6782 59.7734 29.6382 59.7834C29.1449 59.7834 28.655 59.7834 28.1383 59.7768C28.0083 59.7668 27.9017 59.7635 27.7983 59.7568C27.525 59.7435 27.2484 59.7368 26.9751 59.7168C26.6317 59.6935 26.2851 59.6668 25.9418 59.6401C25.6985 59.6201 25.4518 59.5968 25.2085 59.5701C24.9452 59.5401 24.6819 59.5101 24.4185 59.4735C24.0619 59.4201 23.7053 59.3635 23.3519 59.3068C22.612 59.1835 21.8787 59.0268 21.1487 58.8435C20.4288 58.6635 19.7188 58.4569 19.0189 58.2235C17.8789 57.8436 16.769 57.3936 15.6857 56.8703C14.5524 56.3203 13.4658 55.697 12.4259 54.9904C11.326 54.2438 10.2894 53.4171 9.31942 52.5072C9.12276 52.3205 8.92611 52.1372 8.73612 51.9439C7.9595 51.1706 7.23287 50.3473 6.55624 49.4807C5.5163 48.1474 4.60636 46.7308 3.81307 45.2376C2.97978 43.671 2.28316 42.0444 1.69986 40.3712C1.27322 39.1413 0.903238 37.8947 0.596589 36.6314C0.466596 36.1014 0.353269 35.5681 0.233276 35.0382V34.9548V34.5048H0.409933H0.549925H0.713249C1.41987 34.5048 2.11983 34.4849 2.82646 34.4849C3.96973 34.4849 5.10966 34.4815 6.25293 34.4782C7.05955 34.4749 7.86617 34.4749 8.67279 34.4749C8.71612 34.4749 8.76278 34.4749 8.80945 34.4749H9.18276V34.7582V34.8515C9.34942 35.8148 9.5794 36.7614 9.86939 37.6947C10.1994 38.7513 10.6093 39.7779 11.1026 40.7678C11.8859 42.3377 12.8625 43.771 14.0425 45.0676C15.0624 46.1875 16.2024 47.1675 17.4589 48.0141C18.2256 48.5274 19.0222 48.9874 19.8521 49.3874C20.6721 49.784 21.5154 50.124 22.382 50.4073C23.1353 50.6506 23.8986 50.8539 24.6719 51.0139C25.1085 51.1039 25.5485 51.1806 25.9885 51.2406C26.3951 51.2973 26.8017 51.3439 27.2117 51.3739C27.685 51.4106 28.1617 51.4372 28.635 51.4406C28.775 51.4406 28.915 51.4539 29.0549 51.4506C29.5816 51.4339 30.1049 51.4272 30.6282 51.3806C31.0482 51.3439 31.4648 51.3039 31.8814 51.2473C32.6214 51.1439 33.3514 51.0039 34.078 50.8239C35.3612 50.504 36.6045 50.0673 37.8044 49.504C39.591 48.6641 41.2109 47.5841 42.6575 46.2409C44.2241 44.7876 45.5007 43.1077 46.4939 41.2145C46.9739 40.3012 47.3772 39.3546 47.7105 38.378C48.0538 37.3714 48.3238 36.3481 48.5205 35.3048C48.5505 35.1481 48.5771 34.9882 48.6071 34.8315L48.6138 34.8048V34.7782V34.4749L48.9571 34.4782H48.9871H49.0738C51.7203 34.4815 54.3668 34.4882 57.01 34.4915H57.1666H57.36V34.9015V34.9448H57.37ZM9.35942 38.3513C9.01943 37.338 8.75278 36.3081 8.55613 35.2581C8.54946 35.2248 8.53613 35.1948 8.52613 35.1615C8.46613 35.1615 8.41614 35.1615 8.36614 35.1615C6.46625 35.1648 4.56636 35.1681 2.6698 35.1715C2.15317 35.1715 1.63653 35.1748 1.11989 35.1781C1.07656 35.1781 1.0299 35.1648 0.986566 35.2015C0.989899 35.2315 0.993232 35.2681 0.999899 35.3015C1.26655 36.5147 1.57653 37.7147 1.94651 38.8979C2.48315 40.6245 3.13644 42.3077 3.92973 43.9343C4.91301 45.9509 6.09627 47.8374 7.51952 49.5707C9.6794 52.1972 12.2626 54.3038 15.2757 55.8837C16.909 56.7403 18.6122 57.4102 20.3821 57.9169C21.2787 58.1735 22.182 58.3902 23.0986 58.5535C23.4719 58.6202 23.8486 58.6835 24.2252 58.7402C24.5652 58.7935 24.9085 58.8368 25.2518 58.8768C25.6151 58.9168 25.9785 58.9468 26.3451 58.9802C26.8551 59.0235 27.365 59.0502 27.875 59.0602C28.7683 59.0768 29.6582 59.0868 30.5515 59.0335C31.0315 59.0068 31.5115 58.9735 31.9914 58.9302C32.3848 58.8935 32.7781 58.8468 33.1714 58.7902C33.6513 58.7235 34.1313 58.6535 34.6113 58.5668C35.4546 58.4169 36.2879 58.2302 37.1145 58.0069C38.9377 57.5169 40.6943 56.8636 42.3842 56.017C44.6807 54.8637 46.7573 53.4038 48.5938 51.6072C50.2904 49.9473 51.7103 48.0708 52.8836 46.0075C53.9202 44.1876 54.7368 42.2711 55.3834 40.2812C55.9167 38.6413 56.3234 36.9714 56.6333 35.2748C56.64 35.2481 56.6367 35.2181 56.64 35.1981C56.6267 35.1848 56.6233 35.1815 56.62 35.1781C56.6 35.1748 56.58 35.1715 56.56 35.1715C54.1402 35.1681 51.7203 35.1615 49.3004 35.1581C49.2971 35.1581 49.2904 35.1581 49.2871 35.1615C49.2838 35.1648 49.2804 35.1681 49.2704 35.1748C49.2671 35.1848 49.2604 35.1981 49.2571 35.2115C49.1638 35.7381 49.0505 36.2614 48.9171 36.7814C48.4805 38.5213 47.8472 40.1879 46.9906 41.7678C45.9006 43.7777 44.504 45.5442 42.7875 47.0575C40.8843 48.7374 38.7277 49.9873 36.3412 50.8506C34.7246 51.4339 33.0614 51.8139 31.3515 52.0005C30.9015 52.0505 30.4549 52.0872 30.0049 52.1072C29.2183 52.1439 28.4316 52.1372 27.645 52.0905C27.0784 52.0572 26.5151 52.0039 25.9551 51.9272C25.3585 51.8472 24.7685 51.7372 24.1819 51.6072C22.672 51.2706 21.2121 50.7839 19.8155 50.1273C16.2624 48.4574 13.4292 45.9742 11.3593 42.6311C10.526 41.2911 9.86939 39.8679 9.35942 38.3513Z" fill="#1D1D1B"/>
<path d="M17.9923 33.838C16.5657 32.2081 15.1458 30.5882 13.7226 28.9683C13.7126 28.9583 13.7092 28.9416 13.6992 28.925C13.7126 28.905 13.7292 28.885 13.7425 28.8683C13.8492 28.7483 13.9592 28.6316 14.0692 28.515C14.2592 28.3083 14.4525 28.105 14.6425 27.8983C15.0125 27.4984 15.3825 27.0951 15.7524 26.6917C15.9824 26.4418 16.2157 26.1918 16.4457 25.9385C16.8157 25.5351 17.1857 25.1352 17.5557 24.7319C17.7856 24.4819 18.019 24.2286 18.249 23.9786C18.6189 23.5753 18.9889 23.1753 19.3589 22.772C19.5889 22.522 19.8222 22.272 20.0522 22.0187C20.4222 21.6154 20.7921 21.2154 21.1621 20.8121C21.3921 20.5621 21.6254 20.3121 21.8554 20.0588C22.2254 19.6555 22.5954 19.2555 22.9653 18.8522C23.1953 18.6022 23.4287 18.3522 23.6586 18.0989C24.0286 17.6956 24.3986 17.2956 24.7686 16.8923C25.0086 16.629 25.2519 16.369 25.4919 16.1057C25.8618 15.7024 26.2318 15.3024 26.6018 14.8991C26.8318 14.6491 27.0651 14.3991 27.2951 14.1458C27.6551 13.7558 28.0151 13.3625 28.375 12.9725C28.4917 12.8459 28.605 12.7225 28.7217 12.5959C28.745 12.5692 28.7717 12.5459 28.8017 12.5159C28.8283 12.5325 28.855 12.5459 28.875 12.5659C29.0783 12.7859 29.285 13.0058 29.4883 13.2292C29.5083 13.2525 29.5283 13.2725 29.5483 13.2958C29.875 13.6491 30.2049 13.9991 30.5316 14.3524C30.7816 14.6224 31.0282 14.8891 31.2749 15.1591C31.5315 15.4357 31.7848 15.7124 32.0415 15.989C32.2815 16.249 32.5248 16.5123 32.7648 16.7723C33.1448 17.1856 33.5281 17.5956 33.908 18.0089C34.1347 18.2556 34.3647 18.5022 34.5913 18.7489C34.9747 19.1655 35.3613 19.5821 35.7446 19.9955C35.9779 20.2488 36.2146 20.5054 36.4479 20.7587C36.8345 21.1787 37.2245 21.5987 37.6112 22.0187C37.8378 22.2653 38.0678 22.512 38.2945 22.7586C38.5878 23.0753 38.8778 23.3953 39.1677 23.7119C39.3011 23.8552 39.4311 23.9986 39.5644 24.1419C39.8877 24.4919 40.2143 24.8385 40.5377 25.1885C40.791 25.4618 41.041 25.7318 41.2943 26.0051C41.5443 26.2751 41.7909 26.5418 42.0376 26.8117C42.4109 27.2184 42.7875 27.6217 43.1608 28.0283C43.3542 28.2383 43.5475 28.4483 43.7408 28.6616C43.7575 28.6783 43.7708 28.6983 43.7908 28.725C43.7475 28.7783 43.7108 28.8316 43.6708 28.8783C43.4442 29.1383 43.2175 29.3983 42.9909 29.6616C42.7575 29.9316 42.5276 30.2016 42.2942 30.4715C42.0676 30.7315 41.8409 30.9915 41.6143 31.2548C41.391 31.5115 41.171 31.7715 40.9476 32.0281C40.791 32.2114 40.631 32.3914 40.4743 32.5714C40.231 32.8514 39.9877 33.1314 39.7477 33.4147C39.6011 33.5847 39.4511 33.7547 39.3044 33.9247C39.0578 34.208 38.8144 34.4946 38.5678 34.778C38.3411 35.038 38.1145 35.3013 37.8878 35.5613C37.6545 35.8312 37.4245 36.1012 37.1912 36.3679C36.9679 36.6245 36.7446 36.8812 36.5212 37.1412C36.2846 37.4145 36.0479 37.6878 35.8146 37.9611C35.6646 38.1344 35.5113 38.3078 35.3613 38.4844C35.118 38.7644 34.878 39.0444 34.6347 39.3277C34.4147 39.581 34.1947 39.8344 33.9747 40.0877C33.7347 40.3643 33.4981 40.641 33.2581 40.9176C33.0381 41.1709 32.8181 41.4243 32.5981 41.6776C32.3581 41.9542 32.1182 42.2309 31.8815 42.5075C31.7315 42.6809 31.5782 42.8575 31.4282 43.0308C31.1849 43.3108 30.9449 43.5908 30.7016 43.8741C30.4782 44.1308 30.2549 44.3874 30.0316 44.6441C29.795 44.9174 29.5616 45.1907 29.325 45.464C29.1783 45.634 29.0283 45.804 28.8817 45.974C28.8517 46.0073 28.8217 46.0407 28.7817 46.0773C28.7517 46.054 28.7217 46.034 28.7017 46.0107C28.5284 45.8174 28.355 45.6207 28.185 45.424C28.0884 45.314 27.9951 45.2041 27.8984 45.0941C27.6184 44.7741 27.3384 44.4541 27.0551 44.1341C26.8685 43.9241 26.6818 43.7141 26.4985 43.5041C26.2452 43.2142 25.9918 42.9208 25.7385 42.6309C25.5719 42.4409 25.4085 42.2542 25.2419 42.0676C24.9686 41.7542 24.6952 41.4409 24.4186 41.1276C24.2453 40.931 24.072 40.7376 23.902 40.541C23.6453 40.2477 23.3887 39.951 23.1287 39.6577C22.9487 39.4544 22.7687 39.2511 22.592 39.0477C22.3321 38.7511 22.0721 38.4511 21.8087 38.1544C21.6454 37.9678 21.4854 37.7845 21.3221 37.6011C21.0521 37.2912 20.7821 36.9812 20.5088 36.6745C20.3322 36.4745 20.1555 36.2779 19.9822 36.0779C19.7189 35.7746 19.4556 35.4746 19.1889 35.1713C19.0456 35.008 18.9056 34.848 18.7623 34.6846C18.5023 34.418 18.249 34.1313 17.9923 33.838ZM16.0891 30.0649C16.639 30.6915 17.1857 31.3148 17.7357 31.9415C19.3089 33.7347 20.8855 35.5313 22.4587 37.3245C23.732 38.7744 25.0052 40.2277 26.2785 41.6776C27.0818 42.5942 27.8851 43.5108 28.6917 44.4241C28.715 44.4508 28.7417 44.4708 28.7683 44.4941C28.7917 44.4708 28.8083 44.4541 28.825 44.4341C33.3314 39.2277 37.8378 34.0213 42.3442 28.8183C42.3476 28.815 42.3476 28.8083 42.3509 28.805C42.3509 28.8016 42.3509 28.795 42.3542 28.785C42.3276 28.755 42.2976 28.7216 42.2676 28.6883C37.7912 23.8386 33.3114 18.9922 28.835 14.1424C28.8317 14.1391 28.825 14.1391 28.8217 14.1358C28.8183 14.1358 28.8117 14.1324 28.8083 14.1324C28.6817 14.2491 15.2058 28.875 15.1358 28.975C15.4491 29.3349 15.7624 29.6916 16.0891 30.0649Z" fill="#FF4840"/>
<path d="M22.082 28.0651L22.8986 28.1318L24.1486 28.7651L24.5152 28.6317L25.7318 29.0817L26.5984 29.4317L27.615 29.7817L28.2817 28.8984L28.365 28.5817L28.115 28.3484L28.215 27.8985L28.7483 27.8318L29.3149 27.9984L29.215 28.7317L29.5649 29.415L30.1816 29.7817L31.5481 29.1817L33.0481 28.7317L33.798 28.5817L34.648 28.1484L35.4313 27.9984L34.948 28.7317L33.748 29.2984L32.9647 30.015L32.3814 30.9149V31.2649L32.5648 31.6482L32.3814 32.1482L33.4647 32.2815L35.1313 33.0315L35.8479 33.3148L35.6312 34.7981L34.0647 34.2481L32.5981 34.6147H31.1315L28.6483 33.9648L26.1485 34.6147H25.0319L23.2153 34.2481L21.932 34.7981L21.7654 33.3148L24.1486 32.2815H25.0319L25.1152 31.9982L24.9152 31.5316L25.1652 31.2649L24.9152 30.615L23.9319 29.4317L22.6153 28.7651L22.082 28.0651Z" fill="#FF4840"/>
<path d="M24.7152 33.1483L26.1485 33.0316L26.5485 32.4316L27.5317 33.1483L28.265 33.6316L27.5817 33.9982L26.2985 34.2482L24.7986 34.1982L23.882 33.8482L24.7152 33.1483Z" fill="white"/>
<path d="M25.3986 32.7648L25.4652 32.3482L26.1485 32.2815L26.2152 32.6815L26.2985 32.7648L26.1485 32.8981L25.9319 32.9648H25.4652L25.3986 32.7648Z" fill="white"/>
<path d="M32.8181 33.1882L31.3882 33.0449L30.9982 32.4382L30.0016 33.1382L29.2583 33.6082L29.9349 33.9882L31.2149 34.2615L32.7148 34.2382L33.638 33.9049L32.8181 33.1882Z" fill="white"/>
<path d="M32.1415 32.7947L32.0815 32.3781L31.3982 32.2981L31.2816 32.4648L31.3249 32.6947L31.2416 32.7781L31.3882 32.9147L31.6049 32.9847L32.0715 32.9914L32.1415 32.7947Z" fill="white"/>
<path d="M24.5819 29.7317L26.5318 30.3317L27.2651 30.6983L25.9152 31.2983L24.5819 29.7317Z" fill="white"/>
<path d="M32.9147 29.7317L30.9649 30.3317L30.2316 30.6983L31.5815 31.2983L32.9147 29.7317Z" fill="white"/>
<path d="M21.8921 35.1281C21.8388 35.1648 21.8021 35.2081 21.7388 35.2314C21.7355 35.1948 21.7288 35.1681 21.7288 35.1415C21.7155 34.9215 21.7021 34.7048 21.6888 34.4848C21.6655 34.1482 21.5788 33.8249 21.4721 33.5049C21.4488 33.4349 21.4255 33.3649 21.3988 33.2949C21.4321 33.2516 21.4855 33.2516 21.5255 33.2349C21.8154 33.1349 22.1088 33.0382 22.3987 32.9416C22.8787 32.7782 23.3254 32.5449 23.7587 32.2883C23.8853 32.2116 24.0153 32.135 24.1486 32.055C24.1886 32.0716 24.232 32.0916 24.2753 32.1083C24.4153 32.1616 24.5553 32.2116 24.7086 32.1983C24.8386 32.1883 24.9519 32.1483 25.0553 32.0483C25.0286 32.0283 25.0053 32.015 24.9853 32.0016C24.8153 31.8916 24.7519 31.7283 24.7653 31.5316C24.7719 31.4283 24.8353 31.3517 24.9119 31.285C24.9586 31.245 25.0086 31.2117 25.0619 31.1717C25.0386 31.135 25.0153 31.0983 24.9886 31.065C24.5886 30.5317 24.1886 29.9984 23.792 29.4618C23.7487 29.4051 23.6987 29.3618 23.6353 29.3284C23.4587 29.2351 23.282 29.1384 23.1054 29.0451C23.0554 29.0185 23.0054 28.9985 22.9454 29.0018C22.9054 29.0051 22.8621 28.9985 22.8187 28.9918C22.5754 28.9651 22.3987 28.8418 22.2921 28.6251C22.2354 28.5085 22.1554 28.4318 22.0454 28.3718C21.9854 28.3385 21.9288 28.2985 21.8721 28.2618C21.9021 28.1652 22.0388 27.9352 22.1288 27.8219C22.1821 27.8219 22.2321 27.8552 22.2821 27.8752C22.3354 27.8952 22.3854 27.9185 22.4387 27.9385C22.4754 27.9152 22.5087 27.8919 22.5454 27.8685C22.6421 27.8119 22.7421 27.8119 22.8387 27.8652C22.932 27.9152 23.002 27.9885 23.052 28.0818C23.072 28.1218 23.092 28.1652 23.112 28.2118C23.452 28.3485 23.792 28.4885 24.1386 28.6251C24.1686 28.5985 24.1986 28.5718 24.2253 28.5485C24.3553 28.4252 24.602 28.4285 24.7086 28.5851C24.7419 28.6351 24.7919 28.6551 24.8453 28.6751C25.5652 28.9618 26.2819 29.2484 27.0018 29.5351C27.1351 29.5884 27.2718 29.6418 27.4051 29.6951C27.4818 29.6484 27.5185 29.5684 27.5784 29.5118C27.6384 29.4584 27.6984 29.4051 27.7618 29.3584C27.8284 29.3084 27.9018 29.2684 27.9784 29.2184C27.9784 29.1851 27.9818 29.1551 27.9818 29.1218C27.9851 28.9051 28.0684 28.7351 28.2651 28.6285C28.2551 28.5951 28.2284 28.6085 28.2084 28.6085C28.1817 28.6051 28.1517 28.6085 28.1251 28.6051C28.1017 28.6051 28.0784 28.6018 28.0618 28.6018C28.0518 28.5885 28.0418 28.5818 28.0418 28.5751C27.9984 28.4085 27.9984 28.2418 28.0451 28.0785C28.0984 27.8985 28.2184 27.7852 28.4017 27.7419C28.4251 27.7352 28.4484 27.7319 28.4717 27.7285C28.5551 27.7152 29.0017 27.7219 29.085 27.7385C29.2717 27.7752 29.395 27.8819 29.455 28.0618C29.4883 28.1652 29.5017 28.2718 29.495 28.3785C29.4883 28.4485 29.4783 28.5151 29.4683 28.5851C29.395 28.6251 29.315 28.5918 29.2417 28.6151C29.2517 28.6518 29.2883 28.6551 29.3117 28.6751C29.335 28.6985 29.3617 28.7151 29.385 28.7418C29.4083 28.7651 29.425 28.7918 29.4417 28.8218C29.4583 28.8551 29.475 28.8885 29.4883 28.9251C29.4983 28.9551 29.505 28.9885 29.5117 29.0218C29.5183 29.0551 29.5217 29.0851 29.525 29.1184C29.5283 29.1518 29.525 29.1818 29.525 29.2151C29.6283 29.2851 29.735 29.3484 29.8283 29.4251C29.9216 29.5018 29.9983 29.5984 30.0916 29.6918C30.1116 29.6851 30.1416 29.6784 30.1716 29.6684C30.9982 29.3384 31.8249 29.0085 32.6515 28.6785C32.7115 28.6551 32.7681 28.6251 32.8081 28.5718C32.9115 28.4352 33.1415 28.4352 33.2615 28.5385C33.2948 28.5651 33.3214 28.5951 33.3581 28.6285C33.7014 28.4952 34.0414 28.3518 34.3881 28.2152C34.408 28.1752 34.4247 28.1318 34.448 28.0918C34.498 27.9985 34.5647 27.9252 34.658 27.8719C34.7614 27.8152 34.8614 27.8152 34.9647 27.8752C34.9947 27.8952 35.028 27.9152 35.0613 27.9385C35.1647 27.8985 35.268 27.8552 35.3747 27.8119C35.4713 27.9518 35.5513 28.0918 35.638 28.2385C35.618 28.2585 35.6013 28.2785 35.5813 28.2952C35.5513 28.3185 35.5213 28.3385 35.488 28.3552C35.3613 28.4218 35.268 28.5118 35.2013 28.6451C35.0847 28.8851 34.8714 28.9951 34.6114 29.0018C34.5147 29.0051 34.4314 29.0318 34.3481 29.0751C34.1847 29.1651 34.0214 29.2518 33.8548 29.3384C33.8081 29.3618 33.7714 29.3918 33.7381 29.4351C33.3148 30.0051 32.8881 30.5717 32.4648 31.1383C32.4582 31.145 32.4582 31.155 32.4515 31.1717C32.4715 31.185 32.4915 31.2017 32.5115 31.2183C32.5548 31.2517 32.6015 31.285 32.6415 31.325C32.7315 31.4183 32.7648 31.525 32.7415 31.6583C32.7081 31.8316 32.6248 31.9583 32.4515 32.0383C32.4748 32.0616 32.4882 32.0816 32.5082 32.095C32.6515 32.1916 32.8081 32.2183 32.9748 32.1816C33.0648 32.1616 33.1548 32.1283 33.2415 32.0983C33.2814 32.085 33.3181 32.0683 33.3614 32.0516C33.4648 32.115 33.5681 32.1783 33.6748 32.2383C33.8281 32.3283 33.9814 32.4149 34.1381 32.5016C34.5814 32.7549 35.0613 32.9249 35.5413 33.0882C35.688 33.1382 35.8346 33.1816 35.9813 33.2316C36.0213 33.2449 36.0613 33.2582 36.098 33.2716C36.1146 33.3216 36.0913 33.3582 36.078 33.3982C35.9946 33.6415 35.918 33.8849 35.8713 34.1382C35.818 34.4315 35.7946 34.7281 35.788 35.0281C35.788 35.0915 35.788 35.1581 35.788 35.2181C35.748 35.2381 35.728 35.2114 35.708 35.1948C35.5513 35.0781 35.3947 34.9581 35.238 34.8415C34.9314 34.6148 34.5914 34.4548 34.2414 34.3048C34.1814 34.2782 34.1247 34.2848 34.0681 34.3082C33.7081 34.4348 33.3381 34.5381 32.9648 34.6148C32.4782 34.7148 31.9882 34.7681 31.4882 34.7381C31.1616 34.7215 30.8383 34.6648 30.5216 34.5881C29.9516 34.4548 29.4017 34.2715 28.865 34.0415C28.7884 34.0082 28.7284 34.0115 28.6517 34.0415C28.1184 34.2682 27.5718 34.4515 27.0085 34.5848C26.5252 34.6981 26.0352 34.7648 25.5386 34.7415C25.1753 34.7248 24.8153 34.6715 24.4586 34.5948C24.1253 34.5215 23.7953 34.4348 23.4787 34.3148C23.3854 34.2815 23.312 34.2915 23.2254 34.3248C22.7354 34.5282 22.3021 34.7981 21.8921 35.1281ZM32.7381 30.2684C32.7381 30.2617 32.7381 30.2584 32.7381 30.2517C32.7348 30.2584 32.7315 30.2651 32.7181 30.2717C32.7181 30.2751 32.7181 30.2817 32.7215 30.2851C32.7215 30.2817 32.7248 30.2751 32.7381 30.2684ZM24.7886 30.2817C24.7786 30.2784 24.7719 30.2751 24.7619 30.2517C24.7519 30.2384 24.7419 30.2251 24.7286 30.2051C24.7253 30.2051 24.7219 30.2017 24.7186 30.2017C24.7219 30.2051 24.7286 30.2084 24.7319 30.2317C24.7419 30.2451 24.7519 30.2584 24.7653 30.2851C24.7719 30.2884 24.7819 30.2951 24.7919 30.3151C24.8019 30.3184 24.8086 30.3251 24.8186 30.345C24.8286 30.3484 24.8353 30.355 24.8419 30.375C24.8519 30.3884 24.8619 30.4017 24.8753 30.435C25.0419 30.655 25.2086 30.8717 25.3719 31.0917C25.3986 31.1283 25.4252 31.1683 25.4586 31.2017C25.4919 31.235 25.5286 31.235 25.5686 31.215C25.5652 31.1983 25.5652 31.1883 25.5619 31.1817C25.3552 30.935 25.1486 30.6917 24.9386 30.445C24.9253 30.4284 24.9019 30.4217 24.8786 30.3917C24.8686 30.3817 24.8586 30.3684 24.8419 30.3417C24.8353 30.3384 24.8253 30.3317 24.8153 30.3151C24.8086 30.3051 24.8019 30.3017 24.7886 30.2817ZM32.6515 30.3517C32.6382 30.3684 32.6248 30.3884 32.5982 30.4117C32.5982 30.4184 32.6015 30.425 32.6015 30.4317C32.6082 30.425 32.6148 30.4184 32.6348 30.4084C32.6448 30.3884 32.6582 30.3717 32.6815 30.3484C32.6815 30.3417 32.6782 30.335 32.6782 30.3317C32.6782 30.3384 32.6748 30.345 32.6515 30.3517ZM24.7086 29.7684C24.7019 29.7684 24.6953 29.7717 24.6853 29.7717C24.6886 29.7817 24.6953 29.7884 24.7053 29.8151C25.0953 30.2684 25.4819 30.7217 25.8719 31.175C25.8852 31.1917 25.9052 31.2017 25.9219 31.215C25.9619 31.185 25.9952 31.1583 26.0285 31.135C26.2019 31.0117 26.3852 30.9117 26.6052 30.9084C26.6318 30.9084 26.6585 30.8984 26.6852 30.885C26.7952 30.8384 26.9085 30.7884 27.0185 30.7384C27.0351 30.7317 27.0451 30.7184 27.0685 30.7017C27.0218 30.6817 26.9851 30.665 26.9452 30.6484C26.3818 30.425 25.8185 30.2017 25.2552 29.9817C25.0786 29.9151 24.9019 29.8451 24.7086 29.7684ZM26.9651 31.025C26.8518 31.0683 26.7318 31.0917 26.6318 31.1583C26.6152 31.2517 26.5852 31.335 26.5285 31.405C26.3352 31.6383 26.0985 31.8016 25.7886 31.8416C25.7152 31.8516 25.6419 31.8583 25.5586 31.8683C25.5119 31.9283 25.4652 31.9983 25.4119 32.0616C25.2053 32.3016 24.9519 32.4383 24.6286 32.4183C24.5286 32.4116 24.4253 32.3883 24.3253 32.3649C24.1586 32.3283 24.1586 32.3249 24.012 32.4116C24.0053 32.4149 23.9953 32.4216 23.9887 32.4249C23.7153 32.5783 23.442 32.7282 23.1554 32.8516C22.7321 33.0349 22.2988 33.1982 21.8688 33.3615C21.8354 33.3749 21.8021 33.3915 21.7654 33.4082C21.7721 33.4482 21.7788 33.4782 21.7854 33.5082C21.8054 33.5849 21.8321 33.6582 21.8521 33.7349C21.9154 33.9915 21.9521 34.2548 21.9688 34.5215C21.9721 34.5748 21.9688 34.6315 22.0088 34.6815C22.0654 34.6648 22.1054 34.6281 22.1521 34.5948C22.5621 34.3148 22.992 34.0748 23.4753 33.9415C23.532 33.9248 23.5753 33.8949 23.6153 33.8582C23.8153 33.6682 24.012 33.4782 24.2153 33.2916C24.2953 33.2182 24.382 33.1549 24.4686 33.0916C24.5186 33.0582 24.572 33.0249 24.6286 33.0116C24.8019 32.9682 24.9753 32.9382 25.1553 32.9616C25.1719 32.9649 25.1886 32.9582 25.2119 32.9582C25.1953 32.9249 25.1786 32.9016 25.1686 32.8749C25.1519 32.8182 25.1253 32.7616 25.1453 32.6983C25.2086 32.4749 25.3352 32.3049 25.5552 32.2183C25.6419 32.1849 25.7352 32.1716 25.8285 32.1683C25.9585 32.1649 26.0885 32.1683 26.2219 32.1683C26.2552 32.1683 26.2852 32.1649 26.3185 32.1616C26.3252 32.1383 26.3352 32.1216 26.3385 32.105C26.3619 32.0116 26.4252 31.9516 26.5085 31.9116C26.5885 31.8716 26.6652 31.8283 26.7485 31.8016C26.9518 31.7316 27.1585 31.6716 27.3618 31.605C27.3918 31.595 27.4218 31.585 27.4551 31.5716C27.4518 31.4517 27.4151 31.3483 27.3851 31.2417C27.3551 31.1317 27.3518 31.0117 27.2918 30.905C27.1851 30.9383 27.0851 30.9783 26.9651 31.025ZM32.7115 32.9816C32.9015 32.9949 33.0548 33.0882 33.1948 33.2116C33.4281 33.4115 33.6581 33.6182 33.8714 33.8382C33.9314 33.9015 34.0014 33.9382 34.0847 33.9648C34.4214 34.0648 34.7414 34.2082 35.0347 34.3982C35.168 34.4848 35.3013 34.5715 35.4347 34.6581C35.4613 34.6748 35.4847 34.7048 35.5213 34.6815C35.5447 34.4682 35.5647 34.2548 35.5947 34.0448C35.6246 33.8349 35.6846 33.6282 35.7546 33.4215C35.7146 33.4015 35.6813 33.3849 35.648 33.3715C35.4813 33.3082 35.3147 33.2482 35.1513 33.1849C34.8247 33.0582 34.4947 32.9382 34.1847 32.7816C33.9314 32.6549 33.6814 32.5183 33.4314 32.3816C33.3681 32.3483 33.3148 32.3383 33.2448 32.3549C33.1581 32.3783 33.0715 32.3983 32.9848 32.4116C32.7115 32.4583 32.4648 32.3949 32.2515 32.2183C32.1582 32.1416 32.0715 32.055 32.0049 31.9516C31.9849 31.9216 31.9615 31.895 31.9449 31.875C31.8482 31.8616 31.7649 31.8583 31.6815 31.8416C31.2882 31.755 30.9882 31.5516 30.8549 31.1517C30.6916 31.0717 30.2983 30.9383 30.195 30.9317C30.1416 31.145 30.085 31.3583 30.0416 31.5816C30.0783 31.595 30.105 31.6083 30.135 31.6183C30.3183 31.675 30.5016 31.725 30.6816 31.7883C30.7883 31.825 30.8883 31.875 30.9882 31.9216C31.0749 31.965 31.1416 32.025 31.1616 32.1283C31.1649 32.1449 31.1782 32.1616 31.1916 32.1849C31.2282 32.1849 31.2649 32.1849 31.3016 32.1849C31.4182 32.1849 31.5349 32.1783 31.6515 32.1849C31.7382 32.1883 31.8282 32.1983 31.9149 32.2249C32.1282 32.2883 32.2615 32.4316 32.3348 32.6383C32.3648 32.7216 32.3715 32.8016 32.3348 32.8816C32.3248 32.9049 32.3215 32.9316 32.3115 32.9582C32.4448 32.9616 32.5648 32.9716 32.7115 32.9816ZM24.1986 33.6649C24.142 33.7315 24.072 33.7882 24.0287 33.8715C24.0587 33.8849 24.0853 33.8982 24.1086 33.9049C24.2153 33.9349 24.3253 33.9648 24.432 33.9882C24.7453 34.0615 25.0619 34.1115 25.3852 34.1382C25.7652 34.1715 26.1385 34.1648 26.5152 34.0848C27.0218 33.9748 27.5118 33.8049 27.9884 33.6015C28.0151 33.5882 28.0418 33.5749 28.0784 33.5549C28.0284 33.5282 27.9951 33.5049 27.9584 33.4849C27.7684 33.3749 27.5784 33.2649 27.3885 33.1549C27.2685 33.0849 27.1518 33.0049 27.0485 32.9082C26.9185 32.7882 26.7885 32.6649 26.6585 32.5449C26.6318 32.5216 26.6018 32.4983 26.5752 32.4749C26.5652 32.4816 26.5618 32.4849 26.5585 32.4883C26.5385 32.5316 26.5218 32.5716 26.5018 32.6149C26.3385 32.9749 26.0619 33.1849 25.6652 33.2316C25.3952 33.2616 25.1253 33.2816 24.8553 33.2382C24.7919 33.2282 24.7386 33.2416 24.6819 33.2782C24.512 33.3849 24.352 33.5015 24.1986 33.6649ZM30.9483 34.0748C31.1849 34.1282 31.4249 34.1615 31.6682 34.1615C31.9249 34.1615 32.1815 34.1382 32.4348 34.1048C32.7648 34.0615 33.0881 33.9915 33.4048 33.9015C33.4314 33.8949 33.4514 33.8815 33.4848 33.8649C33.4581 33.8315 33.4414 33.8049 33.4181 33.7815C33.2548 33.5882 33.0615 33.4249 32.8481 33.2882C32.7781 33.2416 32.7081 33.2216 32.6248 33.2349C32.3582 33.2782 32.0949 33.2516 31.8282 33.2249C31.7649 33.2182 31.6982 33.2049 31.6382 33.1849C31.3316 33.0949 31.1282 32.8882 30.9982 32.6016C30.9782 32.5616 30.9649 32.5183 30.9416 32.4649C30.9083 32.4916 30.8849 32.5083 30.8616 32.5283C30.7416 32.6383 30.6216 32.7516 30.5049 32.8616C30.3883 32.9716 30.2616 33.0649 30.125 33.1449C29.9483 33.2482 29.7683 33.3515 29.5917 33.4515C29.5383 33.4815 29.4883 33.5115 29.4183 33.5515C29.915 33.7815 30.4116 33.9548 30.9483 34.0748ZM30.5316 30.3017C30.6916 30.2384 30.8516 30.1751 31.0116 30.1117C31.1749 30.0484 31.3416 29.9817 31.5049 29.9184C31.6649 29.8551 31.8249 29.7917 31.9849 29.7317C32.1482 29.6684 32.3148 29.6051 32.4782 29.5384C32.6348 29.4718 32.8015 29.4251 32.9615 29.3351C32.9281 29.2618 32.8948 29.1951 32.8681 29.1285C32.8381 29.0551 32.8148 28.9818 32.7848 28.8985C32.7448 28.9085 32.7081 28.9185 32.6748 28.9285C32.3315 29.0518 31.9915 29.1751 31.6515 29.2984C31.1449 29.4818 30.6349 29.6684 30.1283 29.8517C30.0983 29.8617 30.0716 29.8784 30.045 29.8951C30.065 29.9884 30.0883 30.0717 30.105 30.1584C30.1216 30.2484 30.125 30.3417 30.1383 30.4384C30.275 30.415 30.3883 30.3517 30.5316 30.3017ZM25.4519 29.1518C25.3352 29.1085 25.2153 29.0651 25.0953 29.0251C24.9719 28.9818 24.8553 28.9251 24.7219 28.9018C24.6619 29.0485 24.6053 29.1884 24.5453 29.3318C24.5853 29.3684 24.6419 29.3851 24.6919 29.4051C25.1986 29.6051 25.7086 29.8051 26.2152 30.0051C26.5718 30.1451 26.9252 30.2851 27.2818 30.425C27.3051 30.435 27.3318 30.4317 27.3551 30.435C27.3885 30.2484 27.4185 30.0717 27.4518 29.8817C26.7952 29.6351 26.1319 29.3984 25.4519 29.1518ZM24.1886 34.3282C24.252 34.3448 24.312 34.3648 24.3753 34.3815C24.6386 34.4482 24.9019 34.4948 25.1719 34.5315C25.3619 34.5548 25.5552 34.5415 25.7452 34.5715C25.9285 34.5448 26.1185 34.5548 26.3019 34.5282C26.5885 34.4882 26.8685 34.4248 27.1485 34.3415C27.6584 34.1882 28.1484 33.9815 28.6217 33.7315C28.7617 33.6582 28.7484 33.6549 28.905 33.7349C29.045 33.8082 29.1884 33.8782 29.3317 33.9448C29.885 34.1982 30.4516 34.4015 31.0549 34.5048C31.2916 34.5448 31.5282 34.5515 31.7649 34.5715C31.7882 34.5748 31.8115 34.5715 31.8349 34.5715C31.9515 34.5648 32.0682 34.5615 32.1848 34.5481C32.2948 34.5381 32.4082 34.5282 32.5182 34.5082C32.6881 34.4782 32.8581 34.4448 33.0248 34.4082C33.2615 34.3548 33.4914 34.2782 33.7181 34.1915C33.7481 34.1815 33.7714 34.1582 33.7981 34.1448C33.7481 34.0548 33.7281 34.0448 33.6581 34.0648C33.4914 34.1182 33.3248 34.1815 33.1515 34.2282C32.6915 34.3515 32.2215 34.4215 31.7415 34.4115C31.5582 34.4082 31.3782 34.4048 31.1982 34.3748C30.9116 34.3315 30.6316 34.2615 30.355 34.1715C29.8516 34.0082 29.365 33.8082 28.8917 33.5715C28.845 33.5482 28.7984 33.5282 28.765 33.5115C28.5051 33.6282 28.2617 33.7415 28.0118 33.8482C27.6018 34.0282 27.1785 34.1748 26.7418 34.2848C26.4185 34.3648 26.0919 34.4148 25.7586 34.4048C25.5819 34.4015 25.4052 34.4082 25.2286 34.3782C25.0619 34.3515 24.8953 34.3415 24.7319 34.3082C24.4486 34.2515 24.1686 34.1815 23.8987 34.0715C23.8787 34.0615 23.8553 34.0548 23.832 34.0515C23.7787 34.0415 23.742 34.0715 23.7153 34.1448C23.8553 34.2248 24.012 34.2748 24.1886 34.3282ZM32.0349 30.7117C32.1215 30.6084 32.2115 30.505 32.2982 30.405C32.3882 30.2984 32.4815 30.1917 32.5715 30.0851C32.6582 29.9851 32.7481 29.8884 32.8315 29.7751C32.8115 29.7717 32.8015 29.7684 32.7948 29.7684C32.0082 30.0784 31.2249 30.385 30.4283 30.6984C30.4549 30.7184 30.4749 30.7317 30.4949 30.7417C30.5849 30.7817 30.6749 30.8184 30.7649 30.8584C30.8283 30.8884 30.8949 30.9117 30.9649 30.9084C30.9982 30.9084 31.0282 30.9183 31.0616 30.925C31.2282 30.965 31.3716 31.0483 31.5082 31.1517C31.5349 31.1717 31.5682 31.1917 31.5982 31.2117C31.7415 31.0517 31.8815 30.8884 32.0349 30.7117ZM28.5717 30.5484C28.5317 30.5517 28.4884 30.5517 28.4517 30.555C28.3951 30.6617 28.4117 30.7717 28.4084 30.8784C28.4051 30.995 28.3984 31.1083 28.4351 31.225C28.4684 31.335 28.5384 31.385 28.6484 31.3917C28.715 31.395 28.7784 31.395 28.845 31.3917C28.995 31.385 29.0517 31.335 29.0884 31.1917C29.1284 31.0417 29.1184 30.8884 29.1017 30.735C29.095 30.675 29.0817 30.6184 29.0717 30.565C29.0517 30.5584 29.045 30.555 29.035 30.5517C28.8884 30.5484 28.7417 30.5484 28.5717 30.5484ZM27.4785 32.4749C27.7551 32.6816 27.8384 32.7349 27.9651 32.7716C27.9784 32.7416 27.9918 32.7149 28.0018 32.6849C28.0151 32.6516 28.0218 32.6149 28.0318 32.5883C27.9518 32.5183 27.8751 32.4583 27.8051 32.3916C27.7318 32.3216 27.6651 32.2416 27.6251 32.1449C27.5884 32.055 27.5651 31.9616 27.5351 31.8683C27.5218 31.8683 27.5051 31.865 27.4951 31.8683C27.3485 31.9083 27.1985 31.9483 27.0518 31.9916C27.0351 31.995 27.0151 32.0016 27.0185 32.035C27.1485 32.1849 27.2985 32.3283 27.4785 32.4749ZM30.1316 32.3916C30.245 32.2816 30.3583 32.1683 30.4716 32.0583C30.4849 32.045 30.4916 32.0283 30.5116 32.005C30.4149 31.9783 30.3283 31.9483 30.2383 31.925C30.1483 31.905 30.065 31.8616 29.965 31.865C29.9483 32.0683 29.8616 32.2349 29.7217 32.3749C29.6683 32.4283 29.6117 32.4749 29.555 32.5216C29.5317 32.5416 29.505 32.5616 29.4783 32.5849C29.505 32.6516 29.515 32.7216 29.5617 32.7849C29.7617 32.6749 29.9416 32.5449 30.1316 32.3916ZM31.8515 32.4116C31.8082 32.3916 31.7682 32.3683 31.7249 32.3549C31.6482 32.3283 31.5715 32.3183 31.4916 32.3383C31.3716 32.3649 31.3116 32.4583 31.3416 32.5749C31.3482 32.6016 31.3549 32.6283 31.3716 32.6516C31.4782 32.8316 31.6349 32.9349 31.8449 32.9549C31.9382 32.9649 32.0215 32.9449 32.0749 32.8582C32.1282 32.7716 32.0982 32.6883 32.0515 32.6083C32.0082 32.5316 31.9449 32.4716 31.8515 32.4116ZM27.9018 30.6217C27.8984 30.5984 27.8851 30.5784 27.8584 30.575C27.7584 30.5684 27.6551 30.5684 27.5518 30.575C27.4851 30.7317 27.5218 30.8817 27.5418 31.0317C27.5584 31.1517 27.6051 31.2617 27.6818 31.3583C27.7984 31.3583 27.9084 31.375 28.0184 31.345C28.0251 31.2783 28.0151 31.2217 28.0051 31.1617C27.9684 30.9917 27.9384 30.8184 27.9018 30.6217ZM29.535 31.015C29.525 31.1283 29.4717 31.235 29.485 31.3583C29.605 31.365 29.715 31.365 29.825 31.355C29.9783 31.155 30.0316 30.8217 29.955 30.575C29.8483 30.5717 29.7383 30.565 29.6183 30.5817C29.6083 30.6284 29.5983 30.6717 29.5883 30.7184C29.5717 30.8084 29.555 30.9017 29.535 31.015ZM25.4786 32.6049C25.4719 32.6416 25.4619 32.6783 25.4619 32.7149C25.4619 32.8282 25.5319 32.9116 25.6419 32.9316C25.8219 32.9649 26.0185 32.8616 26.0952 32.6983C26.1752 32.5249 26.0819 32.3616 25.8885 32.3483C25.8619 32.3449 25.8319 32.3516 25.8052 32.3549C25.6652 32.3816 25.5552 32.4549 25.4786 32.6049ZM29.0884 27.9718C28.9317 27.9152 28.7684 27.9119 28.6051 27.9285C28.5217 27.9352 28.4384 27.9485 28.3651 27.9952C28.3151 28.0285 28.2851 28.0718 28.2617 28.1218C28.2417 28.1652 28.2284 28.2118 28.2551 28.2818C28.2751 28.2318 28.2851 28.2018 28.2984 28.1718C28.3351 28.0852 28.3684 28.0718 28.4751 28.0918C28.5284 28.1718 28.5251 28.2785 28.5884 28.3552C28.7017 28.3552 28.815 28.3552 28.925 28.3552C28.9884 28.2685 28.9784 28.1552 29.0484 28.0818C29.1384 28.0652 29.1884 28.1052 29.215 28.1785C29.225 28.2085 29.235 28.2352 29.2417 28.2652C29.2917 28.2452 29.2717 28.2185 29.265 28.1918C29.245 28.1052 29.2017 28.0252 29.0884 27.9718ZM30.185 32.6416C30.1283 32.6816 30.0683 32.7183 30.0116 32.7582C29.7083 32.9582 29.3883 33.1316 29.0717 33.3116C29.0484 33.3249 29.0317 33.3415 29.0084 33.3582C29.0584 33.3982 29.1017 33.4082 29.155 33.3782C29.2717 33.3116 29.3917 33.2516 29.5117 33.1882C29.9016 32.9782 30.275 32.7416 30.6183 32.4616C30.7016 32.3949 30.7816 32.3249 30.8716 32.2449C30.8216 32.2283 30.7883 32.2183 30.7583 32.2083C30.5716 32.3516 30.3883 32.4916 30.185 32.6416ZM27.1685 32.5316C27.0485 32.4349 26.9252 32.3416 26.8052 32.2449C26.7552 32.2049 26.7052 32.1983 26.6518 32.2449C26.6785 32.2716 26.7018 32.2983 26.7285 32.3249C26.9352 32.5083 27.1518 32.6749 27.3818 32.8282C27.6851 33.0282 28.0051 33.2016 28.3284 33.3715C28.3484 33.3815 28.3717 33.3949 28.3917 33.3982C28.4317 33.4049 28.4617 33.3949 28.4917 33.3515C28.4551 33.3282 28.4217 33.3049 28.3884 33.2849C28.2351 33.1982 28.0784 33.1116 27.9251 33.0216C27.6684 32.8716 27.4185 32.7216 27.1685 32.5316ZM28.4984 29.9517C28.5017 29.9817 28.5084 30.0117 28.5151 30.0517C28.6784 30.0517 28.835 30.0617 28.9884 30.0451C29.0417 29.7984 28.9584 29.6151 28.7517 29.5184C28.6317 29.5651 28.5617 29.6584 28.5284 29.7817C28.5117 29.8251 28.5051 29.8784 28.4984 29.9517ZM25.5619 31.6683C25.8285 31.565 26.0985 31.4583 26.3652 31.3217C26.2985 31.265 26.2419 31.2583 26.1785 31.2917C26.1019 31.335 26.0252 31.3817 25.9485 31.4217C25.8085 31.4983 25.6652 31.5616 25.5086 31.595C25.4519 31.6083 25.4086 31.5983 25.3719 31.555C25.3452 31.525 25.3152 31.4917 25.2852 31.4617C25.2152 31.3983 25.1386 31.4017 25.0753 31.465C24.9886 31.5516 25.0153 31.6783 25.1253 31.725C25.1886 31.7516 25.2519 31.755 25.3186 31.735C25.3886 31.7216 25.4652 31.695 25.5619 31.6683ZM31.5149 31.495C31.5582 31.5117 31.6015 31.5316 31.6449 31.5483C31.8182 31.6116 31.9949 31.675 32.1682 31.7383C32.2548 31.7683 32.3448 31.7583 32.4215 31.7083C32.4448 31.695 32.4648 31.6716 32.4748 31.6483C32.5048 31.5783 32.4782 31.505 32.4115 31.4517C32.3548 31.4083 32.2948 31.4083 32.2315 31.4583C32.2115 31.4717 32.1915 31.4883 32.1815 31.5083C32.1182 31.6216 32.0249 31.625 31.9182 31.585C31.8915 31.575 31.8649 31.565 31.8382 31.555C31.6715 31.4917 31.5149 31.4117 31.3649 31.3183C31.2916 31.2717 31.2216 31.2583 31.1416 31.3217C31.2549 31.3917 31.3816 31.4283 31.5149 31.495ZM28.0218 31.805C27.9418 31.8116 27.8584 31.7883 27.7718 31.8183C27.8051 31.995 27.9051 32.1216 28.0184 32.2383C28.0651 32.2849 28.1151 32.3383 28.1984 32.3383C28.2117 32.2916 28.2251 32.2449 28.2351 32.2016C28.2717 32.0483 28.2717 32.0483 28.1884 31.915C28.1751 31.895 28.1617 31.875 28.1517 31.855C28.1284 31.8116 28.0918 31.8016 28.0218 31.805ZM29.535 32.1883C29.615 32.1083 29.675 32.015 29.715 31.9083C29.725 31.8816 29.7217 31.8483 29.725 31.8116C29.605 31.7983 29.495 31.8016 29.3817 31.815C29.345 31.875 29.3083 31.9283 29.2783 31.985C29.265 32.0083 29.2483 32.0383 29.2517 32.0616C29.2583 32.1583 29.2717 32.2516 29.325 32.3416C29.4117 32.3183 29.4617 32.2549 29.535 32.1883ZM28.0851 29.9017C28.0984 29.8517 28.1151 29.8051 28.1251 29.7551C28.1317 29.7251 28.1317 29.6884 28.1184 29.6618C28.0984 29.6151 28.0784 29.5684 28.0218 29.5384C27.9118 29.5751 27.8518 29.6684 27.7918 29.7617C27.7384 29.8484 27.6918 29.9384 27.7218 30.0617C27.8251 30.0684 27.9284 30.0784 28.0351 30.0617C28.0418 30.0417 28.0518 30.0251 28.0551 30.0051C28.0618 29.9784 28.0718 29.9517 28.0851 29.9017ZM29.6783 30.0684C29.6917 30.0684 29.705 30.0684 29.7217 30.0684C29.805 30.0584 29.815 30.0417 29.7983 29.9617C29.7617 29.7884 29.6617 29.6584 29.525 29.5551C29.5117 29.5451 29.4917 29.5451 29.4717 29.5418C29.4217 29.5918 29.395 29.6484 29.3717 29.7084C29.4083 29.8317 29.4283 29.9551 29.4817 30.0717C29.5417 30.0684 29.5983 30.0684 29.6783 30.0684ZM28.7317 31.805C28.6817 31.8116 28.6284 31.7916 28.5817 31.8283C28.5684 32.0083 28.5717 32.1816 28.755 32.2883C28.8317 32.2483 28.885 32.1849 28.905 32.1083C28.925 32.0216 28.9217 31.925 28.9284 31.835C28.9284 31.8283 28.9184 31.8216 28.905 31.8083C28.8617 31.805 28.8084 31.805 28.7317 31.805ZM34.9314 28.6218C34.938 28.5885 34.928 28.5651 34.8914 28.5685C34.8747 28.5685 34.8547 28.5818 34.838 28.5885C34.4047 28.7685 33.9681 28.9485 33.5348 29.1318C33.5181 29.1384 33.5081 29.1518 33.4948 29.1618C33.5248 29.2051 33.5548 29.2084 33.5948 29.1918C33.7281 29.1351 33.8581 29.0751 33.9947 29.0218C34.1147 28.9718 34.2314 28.9085 34.3581 28.8818C34.5614 28.8385 34.748 28.7551 34.9314 28.6218ZM23.3887 28.8885C23.1254 28.7818 22.8654 28.6718 22.5887 28.5585C22.5887 28.5918 22.5821 28.6185 22.5921 28.6318C22.6087 28.6518 22.6321 28.6685 22.6587 28.6818C22.7854 28.7551 22.912 28.8218 23.0554 28.8518C23.2487 28.8951 23.4254 28.9785 23.6053 29.0551C23.712 29.1018 23.8187 29.1451 23.9253 29.1918C23.9653 29.2084 23.9987 29.2018 24.0253 29.1584C23.822 29.0618 23.612 28.9885 23.3887 28.8885ZM29.1884 29.1651C29.1584 29.1185 29.1117 29.1218 29.065 29.1218C28.8517 29.1218 28.6384 29.1218 28.4217 29.1218C28.3951 29.1218 28.3684 29.1284 28.3451 29.1318C28.2717 29.2484 28.2717 29.2484 28.2851 29.3451C28.3317 29.3484 28.3817 29.3618 28.4284 29.3351C28.4351 29.2951 28.3851 29.2551 28.4417 29.2084C28.6384 29.2051 28.8484 29.1984 29.055 29.2118C29.0617 29.2118 29.0684 29.2218 29.0817 29.2318C29.0784 29.2651 29.075 29.3051 29.0717 29.3451C29.1317 29.3484 29.185 29.3618 29.2483 29.3284C29.2317 29.2784 29.215 29.2318 29.1884 29.1651ZM23.2287 28.5685C23.302 28.5985 23.3754 28.6285 23.4487 28.6551C23.5753 28.7018 23.702 28.7485 23.8287 28.7985C23.882 28.8185 23.922 28.8118 23.972 28.7651C23.612 28.6218 23.262 28.4852 22.9054 28.3452C22.8854 28.3685 22.8721 28.3885 22.8521 28.4152C22.9687 28.4852 23.092 28.5151 23.2287 28.5685ZM34.3181 28.4552C34.1881 28.5085 34.0581 28.5551 33.9281 28.6118C33.8014 28.6651 33.6681 28.6951 33.5481 28.7751C33.5981 28.8285 33.6448 28.8151 33.6948 28.7951C33.9981 28.6785 34.3047 28.5618 34.608 28.4452C34.6247 28.4385 34.638 28.4252 34.6514 28.4118C34.5947 28.3585 34.5847 28.3518 34.5314 28.3685C34.468 28.3918 34.4014 28.4218 34.3181 28.4552ZM28.0584 30.2451C27.9884 30.2551 27.9218 30.2684 27.8384 30.2817C27.8984 30.2984 27.9451 30.3151 27.9951 30.325C28.1151 30.3517 28.1784 30.425 28.1884 30.545C28.1951 30.605 28.2084 30.665 28.2117 30.725C28.2184 30.785 28.2184 30.845 28.2184 30.905C28.2417 30.765 28.2584 30.6284 28.2651 30.4884C28.2684 30.4184 28.2951 30.365 28.3584 30.3317C28.3817 30.3217 28.4017 30.3017 28.4351 30.2784C28.3817 30.2584 28.3451 30.2484 28.3051 30.2317C28.2584 30.2151 28.2717 30.1617 28.2451 30.1184C28.2051 30.1784 28.1717 30.2517 28.0584 30.2451ZM29.355 30.425C29.3883 30.365 29.445 30.3484 29.5017 30.3284C29.5483 30.3117 29.595 30.3017 29.6617 30.2817C29.5583 30.2684 29.4783 30.2551 29.395 30.2417C29.355 30.2384 29.325 30.2217 29.3017 30.1884C29.2917 30.1717 29.285 30.1451 29.2583 30.1484C29.235 30.1784 29.215 30.2117 29.185 30.2317C29.1517 30.2551 29.1084 30.2617 29.0584 30.2817C29.095 30.3017 29.1184 30.3184 29.1417 30.3317C29.195 30.3617 29.2217 30.4017 29.225 30.465C29.2284 30.5617 29.2417 30.6584 29.2517 30.755C29.255 30.775 29.245 30.8017 29.285 30.8117C29.3117 30.685 29.3017 30.5584 29.355 30.425ZM33.3781 29.3251C33.3481 29.2218 33.3214 29.1185 33.2814 29.0218C33.2448 28.9318 33.1981 28.8451 33.1548 28.7585C33.1448 28.7418 33.1215 28.7318 33.1015 28.7151C33.0815 28.7718 33.0881 28.8185 33.1048 28.8618C33.1415 28.9751 33.1748 29.0918 33.2181 29.2051C33.2515 29.2918 33.2981 29.3718 33.3414 29.4518C33.3481 29.4651 33.3681 29.4684 33.3914 29.4818C33.3948 29.4518 33.3981 29.4351 33.3948 29.4151C33.3948 29.3918 33.3881 29.3684 33.3781 29.3251ZM24.352 29.0318C24.3753 28.9485 24.3986 28.8618 24.422 28.7785C24.4286 28.7585 24.432 28.7318 24.402 28.7218C24.392 28.7251 24.382 28.7251 24.3753 28.7285C24.362 28.7418 24.352 28.7585 24.342 28.7718C24.242 28.9451 24.182 29.1351 24.1253 29.3284C24.1153 29.3584 24.1153 29.3918 24.1153 29.4251C24.1153 29.4418 24.1086 29.4651 24.1453 29.4684C24.162 29.4418 24.1886 29.4184 24.2053 29.3851C24.2553 29.2751 24.2986 29.1618 24.352 29.0318ZM31.9315 31.2117C31.9849 31.2383 32.0249 31.2217 32.0649 31.175C32.2315 30.9517 32.4015 30.7317 32.5715 30.5117C32.5782 30.5017 32.5748 30.4884 32.5782 30.4684C32.5248 30.475 32.5048 30.515 32.4782 30.545C32.3748 30.665 32.2715 30.785 32.1715 30.905C32.0915 30.9983 32.0115 31.095 31.9315 31.2117ZM28.9817 32.7283C28.785 32.7283 28.5884 32.7283 28.3951 32.7283C28.3617 32.7283 28.3317 32.7316 28.2984 32.7349C28.2917 32.7349 28.2817 32.7482 28.2817 32.7549C28.2851 32.7649 28.2917 32.7816 28.3017 32.7849C28.3117 32.7916 28.3284 32.7916 28.3417 32.7916C28.6217 32.7916 28.9017 32.7916 29.1817 32.7916C29.1984 32.7916 29.215 32.7816 29.245 32.7749C29.225 32.7549 29.215 32.7349 29.2017 32.7349C29.1417 32.7282 29.075 32.7283 28.9817 32.7283ZM28.8717 32.4449C28.7284 32.4449 28.5851 32.4449 28.4384 32.4449C28.4051 32.4449 28.3717 32.4449 28.3417 32.4516C28.3284 32.4549 28.3184 32.4716 28.2917 32.4916C28.3351 32.4983 28.3617 32.5083 28.3884 32.5083C28.6251 32.5083 28.8617 32.5083 29.0984 32.5083C29.1184 32.5083 29.135 32.5083 29.155 32.5049C29.165 32.5016 29.175 32.4916 29.185 32.4816C29.175 32.4716 29.1617 32.4516 29.1517 32.4516C29.0684 32.4449 28.985 32.4483 28.8717 32.4449ZM28.5317 28.6885C28.5384 28.6985 28.5451 28.7185 28.5551 28.7185C28.6884 28.7318 28.8217 28.7318 28.955 28.7185C28.9684 28.6418 28.9617 28.6185 28.9184 28.6185C28.8084 28.6151 28.695 28.6151 28.5851 28.6218C28.5651 28.6251 28.5517 28.6518 28.5317 28.6885ZM22.6787 28.3552C22.6821 28.3552 22.6887 28.3585 22.6921 28.3552C22.7521 28.2918 22.7587 28.2018 22.7054 28.1452C22.6854 28.1218 22.6587 28.1185 22.6287 28.1318C22.5687 28.1618 22.5321 28.2118 22.5121 28.2852C22.5687 28.3085 22.6154 28.3285 22.6787 28.3552ZM34.7747 28.1985C34.7747 28.2518 34.7647 28.3052 34.798 28.3618C34.8714 28.3352 34.9447 28.3285 34.9947 28.2652C34.9714 28.2118 34.938 28.1752 34.898 28.1452C34.8514 28.1085 34.828 28.1152 34.7747 28.1985ZM28.3551 31.5983C28.3417 31.565 28.3284 31.535 28.3151 31.5017C28.3017 31.5383 28.2917 31.575 28.2717 31.6016C28.2517 31.625 28.2151 31.6383 28.1851 31.655C28.2184 31.665 28.2451 31.6683 28.2684 31.6816C28.2917 31.695 28.3084 31.715 28.3184 31.725C28.3751 31.6983 28.4217 31.675 28.4651 31.6516C28.4351 31.6416 28.4017 31.6283 28.3551 31.5983ZM29.2084 31.5416C29.1984 31.5383 29.1884 31.5317 29.1784 31.5283C29.175 31.6016 29.125 31.6283 29.0617 31.6416C29.0584 31.6416 29.055 31.6483 29.045 31.655C29.075 31.6616 29.1017 31.665 29.125 31.6783C29.1484 31.6883 29.165 31.7116 29.1784 31.7216C29.2317 31.6983 29.2817 31.675 29.3283 31.6516C29.305 31.6416 29.2717 31.6316 29.2483 31.615C29.235 31.605 29.2284 31.5783 29.2084 31.5416ZM28.8717 33.0816C28.875 33.0582 28.865 33.0449 28.8417 33.0449C28.785 33.0449 28.7284 33.0416 28.675 33.0449C28.6617 33.0449 28.6517 33.0649 28.6351 33.0782C28.6584 33.0882 28.6717 33.0949 28.685 33.0949C28.7384 33.0949 28.795 33.0949 28.8717 33.0816ZM35.2947 28.1618C35.268 28.1318 35.238 28.1385 35.208 28.1552C35.1847 28.1685 35.1447 28.1718 35.1547 28.2252C35.2047 28.2285 35.258 28.2385 35.2947 28.1618ZM22.2754 28.1452C22.2521 28.1418 22.2254 28.1385 22.2221 28.1685C22.2221 28.1818 22.2354 28.2018 22.2488 28.2118C22.2854 28.2318 22.3254 28.2385 22.3754 28.2085C22.3454 28.1852 22.3188 28.1685 22.2754 28.1452ZM32.8181 30.1617C32.8215 30.1617 32.8281 30.1584 32.8315 30.1584C32.8281 30.1551 32.8248 30.1551 32.8181 30.1617Z" fill="#FFB55D"/>
<path d="M24.7485 22.6487L26.4484 21.4487L26.5818 21.6987L27.0317 22.8653L26.0485 23.7486L25.4152 23.2986L24.7485 22.6487Z" fill="#FF4840"/>
<path d="M24.0486 21.5821L25.6652 20.4321L26.3818 20.5821L26.5818 21.0988L26.2485 21.7487L25.3152 22.6487L24.1152 22.3487L24.0486 21.5821Z" fill="#FF4840"/>
<path d="M26.9984 22.3653L27.665 20.9987L28.8316 20.2488L30.2482 20.3654L31.2482 20.8821L31.5815 21.4487L31.9148 21.9487L32.2981 21.3487L33.2981 20.2488H33.548L31.7315 23.2819L31.5815 23.8486L32.4314 24.6652L32.2981 24.9819L31.9981 25.1485L31.3815 24.4152L31.1315 24.4485L31.2648 24.8319L31.6315 25.2818L31.5315 25.5485L31.2648 25.6485L30.9482 25.5152L30.8149 25.0318L30.5982 24.8819L29.9149 25.4152L28.1483 25.2818L27.2651 24.6485L27.0317 24.8319L26.7151 25.4652L26.4484 25.4985L26.1818 25.3652V25.0985L26.6318 24.5485L26.5818 24.3152L26.3818 24.2819L25.9485 24.8319L25.4485 24.7319L25.3485 24.3152L25.9151 24.0486L26.6318 23.3653L26.9984 22.3653Z" fill="#FF4840"/>
<path d="M31.6915 25.1218C31.7015 25.1518 31.7182 25.1785 31.7249 25.2085C31.7415 25.2818 31.7482 25.3585 31.7082 25.4285C31.5982 25.6118 31.4449 25.7218 31.2249 25.7318C31.1382 25.7351 31.0582 25.7051 30.9882 25.6585C30.9182 25.6118 30.8582 25.5518 30.8149 25.4785C30.7549 25.3818 30.7282 25.2752 30.7582 25.1618C30.7682 25.1218 30.7816 25.0852 30.7349 25.0485C30.6916 25.0452 30.6582 25.0785 30.6216 25.1018C30.2583 25.3585 29.8483 25.4951 29.4083 25.5385C28.895 25.5885 28.4017 25.4985 27.9317 25.2852C27.7051 25.1818 27.4918 25.0585 27.2884 24.9152C27.2718 24.9018 27.2518 24.8918 27.2284 24.8785C27.1784 24.9052 27.1484 24.9485 27.1185 24.9918C27.1018 25.0152 27.0985 25.0485 27.0951 25.0785C27.0818 25.2318 27.0185 25.3585 26.9018 25.4585C26.7518 25.5918 26.5452 25.6418 26.3352 25.5285C26.2685 25.4918 26.2085 25.4485 26.1585 25.3918C26.0618 25.2818 26.0352 25.1585 26.1018 25.0252C26.1318 24.9618 26.1718 24.9018 26.2185 24.8485C26.2685 24.7918 26.3218 24.7352 26.3818 24.6952C26.4818 24.6285 26.5152 24.5252 26.5751 24.4252C26.5185 24.3952 26.4718 24.3719 26.4252 24.3485C26.3418 24.4052 26.2785 24.4685 26.2385 24.5585C26.1885 24.6685 26.1185 24.7618 26.0218 24.8385C25.8852 24.9452 25.7319 24.9652 25.5685 24.9252C25.5419 24.9185 25.5185 24.9085 25.4919 24.8985C25.3452 24.8518 25.2686 24.7518 25.2419 24.6019C25.2219 24.4885 25.2319 24.3819 25.2752 24.2785C25.3286 24.1519 25.4219 24.0719 25.5552 24.0352C25.5752 24.0286 25.5985 24.0186 25.6185 24.0219C25.7352 24.0252 25.7952 23.9386 25.8752 23.8686C25.7619 23.7786 25.6585 23.6919 25.5585 23.6086C25.2219 23.3286 24.8819 23.0486 24.5453 22.7686C24.5086 22.7386 24.4653 22.7153 24.4219 22.6886C24.3319 22.632 24.2386 22.5786 24.1553 22.5153C24.0986 22.472 24.052 22.4186 24.0086 22.3653C23.862 22.1753 23.832 21.9653 23.912 21.742C23.9553 21.6187 24.022 21.512 24.102 21.4087C24.2153 21.2654 24.3453 21.1387 24.4853 21.0221C24.7319 20.8187 24.9919 20.6354 25.2819 20.4988C25.4385 20.4221 25.6019 20.3654 25.7719 20.3388C25.8919 20.3188 26.0085 20.3188 26.1285 20.3488C26.4485 20.4254 26.6918 20.7221 26.6918 21.0487C26.6918 21.1054 26.6985 21.162 26.7151 21.2187C26.7885 21.502 26.8585 21.782 26.9318 22.0653C26.9385 22.0887 26.9485 22.112 26.9685 22.1587C26.9851 22.0853 26.9985 22.0387 27.0118 21.9887C27.1018 21.6354 27.2518 21.3054 27.4718 21.0121C27.7951 20.5754 28.2284 20.2988 28.7584 20.1721C29.0517 20.1054 29.3483 20.0821 29.645 20.1221C29.9816 20.1688 30.3049 20.2621 30.6116 20.4054C30.8816 20.5321 31.1316 20.6921 31.3449 20.9021C31.5749 21.1254 31.7415 21.3887 31.8548 21.6854C31.8682 21.7187 31.8815 21.7487 31.8982 21.792C31.9182 21.7687 31.9348 21.7553 31.9482 21.742C32.1982 21.3954 32.4481 21.0454 32.7015 20.6987C32.7315 20.6587 32.7515 20.6154 32.7448 20.5654C32.7415 20.5387 32.7448 20.5121 32.7481 20.4854C32.7681 20.3721 32.8415 20.2854 32.9581 20.2788C33.1114 20.2688 33.2048 20.1954 33.2614 20.0621C33.2748 20.0354 33.2914 20.0054 33.3081 19.9821C33.3548 19.9154 33.4114 19.8955 33.4948 19.9188C33.5247 19.9288 33.5547 19.9388 33.5814 19.9554C33.6781 20.0088 33.7214 20.0954 33.6947 20.1988C33.6781 20.2654 33.6481 20.3321 33.6181 20.3954C33.6014 20.4354 33.5747 20.4721 33.5447 20.5054C33.5148 20.5421 33.5114 20.5821 33.5181 20.6287C33.5281 20.6854 33.5347 20.7421 33.5281 20.7987C33.5181 20.9154 33.4581 21.0087 33.3548 21.0654C33.2948 21.0987 33.2514 21.142 33.2148 21.202C32.7748 21.9053 32.3315 22.6086 31.8882 23.3119C31.8582 23.3619 31.8382 23.4119 31.8282 23.4719C31.8048 23.6219 31.7748 23.7686 31.6715 23.8952C31.6915 23.9186 31.7082 23.9419 31.7282 23.9652C31.7582 23.9952 31.7948 24.0252 31.8248 24.0552C31.9082 24.1452 32.0048 24.2085 32.1182 24.2519C32.2215 24.2885 32.3182 24.3485 32.3981 24.4285C32.5415 24.5685 32.5681 24.7218 32.4748 24.8985C32.4315 24.9852 32.3715 25.0618 32.2948 25.1252C32.1482 25.2485 31.9948 25.2618 31.8248 25.1718C31.8015 25.1585 31.7815 25.1418 31.7449 25.1185C31.7149 25.0952 31.6982 25.0818 31.6782 25.0652C31.6682 25.0552 31.6615 25.0518 31.6515 25.0385C31.6382 25.0152 31.6215 25.0018 31.6082 24.9785C31.6015 24.9652 31.5982 24.9585 31.5882 24.9452C31.5415 24.8585 31.5115 24.7752 31.5215 24.6819C31.4282 24.6185 31.3382 24.5552 31.2482 24.4952C31.2449 24.4919 31.2415 24.4952 31.2282 24.4985C31.2149 24.5119 31.1982 24.5319 31.1782 24.5519C31.2149 24.6219 31.2449 24.6885 31.2815 24.7552C31.2949 24.7785 31.3115 24.7985 31.3315 24.8152C31.4115 24.8718 31.4915 24.9252 31.5749 24.9852C31.5849 24.9952 31.5915 24.9985 31.6015 25.0118C31.6215 25.0318 31.6382 25.0452 31.6515 25.0618C31.6582 25.0752 31.6649 25.0818 31.6715 25.0952C31.6749 25.1018 31.6815 25.1118 31.6915 25.1218ZM27.1518 23.7919C27.1484 23.7919 27.1485 23.7952 27.1285 23.7986C27.1251 23.8052 27.1185 23.8152 27.1018 23.8219C27.0951 23.8286 27.0885 23.8352 27.0651 23.8452C26.9951 23.8986 26.9185 23.9452 26.8551 24.0052C26.7918 24.0619 26.7085 24.1019 26.6651 24.1819C26.7618 24.2419 26.7685 24.2419 26.8285 24.1785C26.9151 24.0852 26.9985 23.9852 27.0785 23.8886C27.0851 23.8786 27.0885 23.8652 27.1051 23.8452C27.1085 23.8386 27.1118 23.8286 27.1285 23.8186C27.1351 23.8086 27.1418 23.8019 27.1518 23.7919ZM30.7916 24.0252C30.7882 24.0252 30.7816 24.0252 30.7782 24.0286C30.7849 24.0319 30.7916 24.0319 30.7982 24.0519C30.8049 24.0552 30.8149 24.0619 30.8216 24.0752C30.8282 24.0752 30.8349 24.0752 30.8382 24.0786C30.8316 24.0752 30.8282 24.0686 30.8182 24.0519C30.8116 24.0419 30.8016 24.0386 30.7916 24.0252ZM30.8382 22.8886C30.8482 22.7153 30.8616 22.5453 30.8716 22.372C30.8849 22.1353 30.8116 21.9187 30.6849 21.722C30.5716 21.542 30.4216 21.3987 30.2316 21.3054C30.1449 21.262 30.0549 21.2254 29.9616 21.1954C29.6683 21.1087 29.3683 21.0854 29.065 21.112C28.7184 21.142 28.425 21.2787 28.1917 21.5387C28.0751 21.6687 27.9884 21.8153 27.9184 21.9753C27.8017 22.2487 27.7551 22.532 27.7351 22.8253C27.7251 22.9853 27.7517 23.1419 27.7884 23.2953C27.8084 23.3719 27.8417 23.4419 27.9051 23.4986C27.9751 23.5586 28.0151 23.6386 28.0284 23.7286C28.0384 23.7952 28.0751 23.8419 28.1317 23.8719C28.2017 23.9086 28.2717 23.9452 28.3484 23.9752C28.7084 24.1052 29.075 24.1685 29.4583 24.1086C29.595 24.0886 29.7283 24.0619 29.855 23.9986C29.8616 23.9619 29.865 23.9286 29.8716 23.8952C29.9016 23.7519 29.9916 23.6619 30.1349 23.6286C30.1783 23.6186 30.2216 23.6152 30.2649 23.6119C30.2983 23.6086 30.3349 23.6086 30.3616 23.6086C30.4016 23.5619 30.3916 23.5152 30.3949 23.4719C30.4149 23.2353 30.5016 23.1386 30.7182 23.1019C30.7549 23.0953 30.7882 23.0853 30.8149 23.0453C30.8216 23.0086 30.8249 22.9619 30.8382 22.8886ZM31.0116 23.2186C31.0582 23.2586 31.1049 23.2986 31.1516 23.3386C31.2549 23.4286 31.3615 23.5152 31.4649 23.6052C31.4815 23.6186 31.4982 23.6352 31.5282 23.6186C31.6449 23.3353 31.7082 23.0319 31.7249 22.722C31.7349 22.5553 31.7315 22.3886 31.7082 22.2187C31.6782 21.9887 31.6249 21.7653 31.5349 21.5554C31.3515 21.132 31.0582 20.8054 30.6416 20.5921C30.3483 20.4421 30.0349 20.3721 29.7083 20.3488C29.4117 20.3288 29.115 20.3488 28.825 20.4221C28.395 20.5321 28.0317 20.7487 27.7484 21.0921C27.3884 21.5287 27.2184 22.0453 27.1485 22.5986C27.1418 22.6453 27.1551 22.682 27.1918 22.7186C27.2751 22.8053 27.3551 22.892 27.4384 22.9786C27.4484 22.9886 27.4651 22.9953 27.4851 23.0053C27.4951 22.832 27.4918 22.6686 27.5118 22.5053C27.5418 22.272 27.5918 22.0453 27.6818 21.8287C27.7584 21.6487 27.8584 21.482 27.9951 21.3387C28.1951 21.1254 28.4384 20.9887 28.715 20.9054C28.9383 20.8387 29.165 20.8187 29.3983 20.8187C29.5583 20.8187 29.7183 20.8354 29.8716 20.8787C30.2349 20.9821 30.5483 21.162 30.7849 21.462C31.0316 21.772 31.1182 22.132 31.1049 22.5153C31.0982 22.7186 31.0649 22.9186 31.0016 23.1119C30.9949 23.1453 30.9782 23.1719 31.0116 23.2186ZM24.9152 20.9787C24.8852 20.9987 24.8553 21.0187 24.8286 21.0387C24.6019 21.2054 24.4019 21.3954 24.2453 21.632C24.1853 21.722 24.1453 21.8187 24.1186 21.922C24.072 22.1087 24.1553 22.2653 24.3286 22.3253C24.4286 22.3586 24.5353 22.372 24.6419 22.3586C24.8819 22.3253 25.1086 22.2553 25.3252 22.1487C25.5419 22.042 25.7419 21.9153 25.9252 21.7587C26.0785 21.6287 26.2185 21.4887 26.3252 21.3187C26.3852 21.222 26.4318 21.1187 26.4652 21.0054C26.5152 20.8287 26.4152 20.6387 26.1985 20.5887C26.0452 20.5554 25.8985 20.5721 25.7519 20.6054C25.4519 20.6687 25.1852 20.8021 24.9152 20.9787ZM30.3683 24.6852C30.2416 24.5285 30.1216 24.3652 29.985 24.2085C29.935 24.2219 29.895 24.2319 29.8516 24.2452C29.545 24.3385 29.235 24.3685 28.9183 24.3219C28.605 24.2752 28.3084 24.1752 28.0351 24.0119C28.0117 23.9986 27.9884 23.9919 27.9584 23.9786C27.7751 24.2052 27.5884 24.4219 27.4218 24.6519C27.4318 24.6719 27.4351 24.6852 27.4451 24.6952C27.4584 24.7118 27.4784 24.7252 27.4951 24.7385C27.7917 24.9618 28.1117 25.1352 28.4684 25.2418C28.6784 25.3052 28.8917 25.3451 29.1083 25.3351C29.275 25.3285 29.445 25.3085 29.6083 25.2752C29.7616 25.2418 29.9083 25.1985 30.0483 25.1285C30.1816 25.0652 30.3049 24.9918 30.4083 24.8818C30.4249 24.8618 30.4383 24.8385 30.4516 24.8152C30.4316 24.7718 30.4083 24.7352 30.3683 24.6852ZM25.8185 22.172C25.7119 22.2353 25.6085 22.302 25.4985 22.362C25.3886 22.4186 25.2786 22.472 25.1619 22.5186C25.0486 22.562 24.9286 22.5953 24.8086 22.6353C24.8219 22.652 24.8286 22.6653 24.8386 22.672C25.1419 22.9319 25.4419 23.1886 25.7452 23.4486C25.8219 23.5153 25.8985 23.5819 25.9785 23.6452C26.0152 23.6752 26.0385 23.6719 26.0752 23.6452C26.0885 23.6352 26.1018 23.6219 26.1152 23.6086C26.2785 23.4586 26.4385 23.3086 26.6018 23.1586C26.6485 23.1153 26.6951 23.0753 26.7418 23.0353C26.8051 22.9786 26.8618 22.9186 26.9251 22.862C26.9651 22.8286 26.9685 22.7886 26.9518 22.742C26.9485 22.7353 26.9451 22.7253 26.9418 22.7186C26.7951 22.3353 26.6518 21.952 26.5052 21.5687C26.4952 21.5454 26.4818 21.5254 26.4685 21.492C26.4518 21.5154 26.4385 21.5287 26.4318 21.542C26.3318 21.722 26.1985 21.8753 26.0385 22.002C25.9685 22.0587 25.9019 22.1087 25.8185 22.172ZM32.5215 21.842C32.6715 21.6087 32.8215 21.3754 32.9714 21.142C32.9914 21.112 33.0148 21.0854 33.0048 21.0321C32.9614 20.9887 32.9115 20.9354 32.8381 20.9054C32.8215 20.9254 32.8081 20.9421 32.7948 20.9621C32.5648 21.2787 32.3348 21.5987 32.1048 21.9153C32.0515 21.9853 32.0015 22.0587 31.9515 22.132C31.9315 22.1587 31.9248 22.1853 31.9282 22.2187C31.9348 22.3453 31.9382 22.472 31.9448 22.602C31.9448 22.632 31.9348 22.662 31.9582 22.6886C31.9648 22.6886 31.9715 22.692 31.9715 22.6886C32.1482 22.4086 32.3315 22.132 32.5215 21.842ZM26.3852 23.7152C26.2685 23.8152 26.1518 23.9119 26.0385 24.0319C26.1085 24.0919 26.1685 24.1452 26.2285 24.1952C26.2418 24.1919 26.2518 24.1919 26.2585 24.1885C26.2785 24.1785 26.2985 24.1652 26.3152 24.1519C26.5485 23.9719 26.7851 23.7886 26.9885 23.5719C27.0551 23.5019 27.1251 23.4319 27.1918 23.3653C27.2151 23.3419 27.2351 23.3186 27.2551 23.2986C27.2851 23.2686 27.2851 23.2353 27.2751 23.2019C27.2651 23.1786 27.2518 23.1553 27.2351 23.1353C27.1518 23.0319 27.1085 23.0286 27.0118 23.1219C26.8085 23.3119 26.6018 23.5053 26.3852 23.7152ZM27.4918 24.1519C27.5151 24.1185 27.5384 24.0886 27.5618 24.0552C27.6184 23.9786 27.6784 23.8986 27.7351 23.8219C27.7651 23.7786 27.7651 23.7552 27.7351 23.7152C27.7217 23.6986 27.7084 23.6819 27.6918 23.6652C27.6351 23.6152 27.5984 23.6219 27.5451 23.6786C27.5284 23.6986 27.5118 23.7186 27.4951 23.7419C27.3218 23.9719 27.1351 24.1919 26.9318 24.3952C26.8851 24.4419 26.8385 24.4885 26.7951 24.5385C26.7751 24.5585 26.7618 24.5852 26.7451 24.6119C26.8085 24.6652 26.8651 24.7085 26.9285 24.7618C27.1285 24.5719 27.3084 24.3752 27.4918 24.1519ZM31.1316 23.9786C31.2082 24.0519 31.2815 24.1285 31.3582 24.2019C31.4315 24.2752 31.5049 24.3519 31.5849 24.4252C31.6382 24.3619 31.6849 24.3052 31.7315 24.2485C31.6182 24.0919 30.9316 23.4286 30.7882 23.3386C30.7016 23.3619 30.6516 23.4253 30.6216 23.5052C30.7849 23.6619 30.9516 23.8152 31.1316 23.9786ZM30.9382 24.8285C30.9682 24.8052 30.9982 24.7818 31.0282 24.7585C31.0182 24.7385 31.0116 24.7252 31.0049 24.7152C30.7849 24.4319 30.5616 24.1552 30.3183 23.8886C30.3016 23.8686 30.2816 23.8486 30.2616 23.8319C30.2283 23.8019 30.2016 23.8019 30.1649 23.8286C30.1016 23.8786 30.0683 23.9352 30.1449 24.0152C30.2783 24.1585 30.3983 24.3085 30.5216 24.4619C30.6149 24.5785 30.7016 24.7018 30.7916 24.8218C30.8082 24.8452 30.8316 24.8652 30.8549 24.8918C30.8849 24.8718 30.9049 24.8585 30.9382 24.8285ZM31.7615 24.5885C31.7515 24.6285 31.7349 24.6652 31.7382 24.7052C31.7515 24.8285 31.8048 24.9252 31.9282 24.9718C32.0448 25.0152 32.1482 24.9952 32.2382 24.9152C32.3282 24.8352 32.3548 24.7318 32.3182 24.6152C32.2682 24.4485 32.0848 24.3652 31.9248 24.4319C31.8515 24.4585 31.8048 24.5052 31.7615 24.5885ZM25.9452 24.6819C25.9652 24.6519 25.9885 24.6252 26.0018 24.5919C26.0918 24.4019 25.9485 24.1785 25.7385 24.1785C25.6219 24.1785 25.5252 24.2319 25.4719 24.3452C25.4152 24.4619 25.4352 24.5719 25.5152 24.6652C25.5919 24.7552 25.6952 24.7918 25.8152 24.7518C25.8519 24.7385 25.8919 24.7152 25.9452 24.6819ZM26.5052 25.4318C26.5585 25.4418 26.6118 25.4285 26.6618 25.4085C26.7685 25.3651 26.8618 25.2318 26.8485 25.1285C26.8251 24.9485 26.7051 24.8418 26.5385 24.8485C26.4185 24.8552 26.3352 24.9052 26.2852 25.0118C26.2352 25.1218 26.2452 25.2252 26.3218 25.3218C26.3618 25.3751 26.4185 25.4118 26.5052 25.4318ZM31.0916 25.0252C30.9949 25.0718 30.9449 25.1518 30.9282 25.2518C30.8982 25.4285 31.0582 25.5985 31.2515 25.5785C31.4315 25.5585 31.5582 25.3751 31.5015 25.2052C31.4449 25.0318 31.2949 24.9585 31.0916 25.0252ZM33.2081 20.6187C33.1648 20.5754 33.1148 20.5387 33.0648 20.5121C33.0114 20.5554 33.0114 20.5554 32.9814 20.6187C33.0381 20.6787 33.1014 20.7354 33.1948 20.7787C33.2081 20.7587 33.2181 20.7421 33.2314 20.7221C33.2581 20.6887 33.2481 20.6587 33.2081 20.6187ZM30.9616 24.2785C30.9749 24.2952 30.9882 24.3152 31.0049 24.3285C31.0149 24.3385 31.0382 24.3419 31.0516 24.3385C31.0682 24.3319 31.0716 24.3019 31.0516 24.2819C30.9982 24.2285 30.9449 24.1752 30.8916 24.1252C30.8849 24.1185 30.8682 24.1219 30.8516 24.1185C30.8682 24.1819 30.9249 24.2152 30.9616 24.2785ZM33.3981 20.3754C33.4014 20.3354 33.4381 20.2988 33.4214 20.2454C33.3581 20.2654 33.3214 20.3088 33.2714 20.3521C33.2981 20.3754 33.3181 20.3988 33.3414 20.4154C33.3648 20.4321 33.3814 20.4121 33.3981 20.3754Z" fill="#FFB55D"/>
<path d="M46.2539 0C46.2673 0.066663 46.2673 0.129993 46.2673 0.196656C46.2673 10.5894 46.2673 20.9855 46.2673 31.3783C46.2673 31.9549 46.2406 32.5282 46.1873 33.1015C46.1239 33.7715 46.0239 34.4314 45.8806 35.088C45.5506 36.6246 45.0207 38.0879 44.2874 39.4778C43.6074 40.7677 42.7741 41.9543 41.7909 43.0343C40.8842 44.0309 39.8743 44.9108 38.7644 45.6741C38.0611 46.1574 37.3278 46.5841 36.5612 46.9574C35.3646 47.5407 34.1146 47.974 32.818 48.2673C32.3114 48.3806 31.7981 48.474 31.2815 48.5373C30.9248 48.5806 30.5648 48.6106 30.2049 48.6373C29.9549 48.6573 29.7049 48.664 29.4549 48.6673C29.0749 48.674 28.695 48.6873 28.315 48.6773C27.8783 48.6673 27.445 48.6506 27.0117 48.6106C26.6384 48.574 26.2651 48.534 25.8951 48.4773C25.1518 48.3606 24.4219 48.2007 23.6986 47.9907C22.6786 47.6907 21.692 47.304 20.7454 46.8207C20.2054 46.5474 19.6821 46.2441 19.1722 45.9141C18.3389 45.3741 17.5556 44.7642 16.829 44.0875C15.8524 43.1809 14.9891 42.1777 14.2458 41.071C13.8125 40.4277 13.4192 39.7578 13.0792 39.0612C12.5692 38.0246 12.1659 36.9513 11.8759 35.8313C11.7359 35.2947 11.6193 34.7514 11.5326 34.2014C11.4759 33.8414 11.4293 33.4781 11.396 33.1148C11.366 32.7815 11.3393 32.4482 11.3326 32.1115C11.326 31.8416 11.3126 31.5716 11.3126 31.3016C11.3126 20.9488 11.3126 10.5927 11.3126 0.239987C11.3126 0.169991 11.3126 0.0999944 11.3126 0.0166657C22.9453 0 34.5913 0 46.2539 0ZM45.1573 5.16638V5.60969V5.81634C45.1573 5.81634 13.4625 5.79634 12.5592 5.79634C12.5192 5.79634 12.4792 5.79634 12.4392 5.79634C12.4292 5.79634 12.4192 5.79634 12.4092 5.79968C12.4059 5.79968 12.3992 5.80301 12.3959 5.80301C12.3926 5.80634 12.3892 5.80968 12.3859 5.81301C12.3692 5.91634 12.3626 8.19954 12.3726 10.0328C12.3726 10.0761 12.3759 10.1194 12.3792 10.1661C12.4559 10.1961 12.5259 10.1828 12.5959 10.1828C23.3753 10.1828 34.1546 10.1828 44.934 10.1828C44.9773 10.1828 45.024 10.1828 45.0707 10.1828C45.1007 10.1828 45.1273 10.1761 45.154 10.1728C45.1607 10.1561 45.164 10.1461 45.1673 10.1361C45.1673 10.0994 45.1707 10.0661 45.1707 10.0294C45.1707 8.63285 45.1673 7.23293 45.1673 5.83634V5.81968V5.81301V5.80634V5.79634L45.1707 5.26637V5.16638V5.14638V5.11972V5.09638V5.05305V5.00972C45.1707 3.60313 45.1673 2.19654 45.1673 0.786623C45.1673 0.78329 45.1673 0.776623 45.164 0.77329C45.1607 0.769957 45.1573 0.766624 45.144 0.753291C45.0873 0.739959 45.0173 0.746625 44.9473 0.746625C34.1713 0.746625 23.3919 0.746625 12.6159 0.746625C12.5692 0.746625 12.5259 0.743292 12.4792 0.746625C12.4492 0.749958 12.4226 0.756625 12.3859 0.766624C12.3859 0.826621 12.3859 0.883284 12.3859 0.936615C12.3859 2.27321 12.3859 3.6098 12.3859 4.94972C12.3859 4.97972 12.3826 5.00972 12.3859 5.03972C12.3892 5.06638 12.3959 5.09638 12.3992 5.11972C12.5426 5.14305 45.1573 5.16638 45.1573 5.16638ZM24.1319 16.1824C24.1552 16.1558 24.1785 16.1291 24.2019 16.1058C25.2185 15.0058 26.2351 13.9059 27.2517 12.806C27.755 12.2627 28.2583 11.716 28.7616 11.1727C28.7816 11.1527 28.8116 11.136 28.7983 11.0894C28.7416 11.0894 28.685 11.0894 28.625 11.0894C23.2819 11.0894 17.9422 11.0894 12.5992 11.0894C12.5526 11.0894 12.5092 11.0861 12.4626 11.0894C12.4359 11.0894 12.4059 11.0994 12.3692 11.106C12.3692 11.176 12.3692 11.2427 12.3692 11.306C12.3692 17.1024 12.3692 22.8987 12.3692 28.6917C12.3692 28.7384 12.3692 28.7817 12.3692 28.8284C12.3692 28.8451 12.3659 28.8684 12.4059 28.8784C12.4459 28.8351 12.4892 28.7917 12.5326 28.7451C13.0525 28.1818 13.5725 27.6185 14.0925 27.0552C15.3157 25.7286 16.539 24.4053 17.7622 23.0787C18.5922 22.1821 19.4222 21.2821 20.2488 20.3855C21.542 18.9856 22.832 17.5924 24.1319 16.1824ZM34.5846 11.0861C32.6847 11.0894 30.7882 11.0894 28.8883 11.0927C28.8849 11.0927 28.8849 11.0994 28.8749 11.1127C28.8883 11.1294 28.9016 11.146 28.9183 11.1627C28.9916 11.2427 29.0683 11.3227 29.1449 11.406C30.2082 12.556 31.2748 13.7092 32.3381 14.8592C33.008 15.5825 33.678 16.3058 34.348 17.0324C35.4212 18.1957 36.4978 19.3556 37.5744 20.5189C38.2244 21.2222 38.8744 21.9221 39.5243 22.6254C40.5843 23.772 41.6475 24.9186 42.7075 26.0686C43.1541 26.5519 43.5974 27.0318 44.0441 27.5151C44.3807 27.8785 44.7174 28.2418 45.0573 28.6051C45.0807 28.6317 45.1007 28.6684 45.1573 28.6751C45.1573 28.6084 45.1607 28.5484 45.1607 28.4884C45.1607 22.7587 45.1607 17.0291 45.1607 11.2994C45.1607 11.2594 45.164 11.2194 45.1607 11.1794C45.1573 11.1527 45.1507 11.1227 45.144 11.0861C41.6309 11.0861 38.1244 11.0861 34.5846 11.0861ZM31.8614 44.0442C31.2281 44.7742 30.5948 45.5041 29.9615 46.2341C29.5982 46.6541 29.2316 47.0741 28.8683 47.494C28.8483 47.5174 28.8083 47.534 28.8283 47.5807C28.8483 47.5807 28.8683 47.584 28.8883 47.584C29.2249 47.5807 29.5582 47.584 29.8949 47.5607C30.2482 47.5374 30.6048 47.5074 30.9582 47.464C31.4415 47.4074 31.9181 47.324 32.3947 47.224C33.5347 46.9807 34.6346 46.6207 35.6912 46.1308C38.3177 44.9208 40.4776 43.1376 42.1608 40.7877C43.2908 39.2145 44.1007 37.4879 44.6074 35.618C44.8307 34.7914 44.9873 33.9514 45.074 33.0982C45.114 32.7082 45.1507 32.3215 45.154 31.9316C45.1607 30.8949 45.1607 29.8583 45.1607 28.8217C45.1607 28.7984 45.1707 28.7717 45.134 28.7584C45.1073 28.7851 45.0807 28.8151 45.0573 28.8451C44.3907 29.6117 43.7241 30.3816 43.0575 31.1483C42.3008 32.0182 41.5475 32.8882 40.7909 33.7581C39.961 34.7147 39.131 35.6713 38.2977 36.6313C37.5511 37.4912 36.8078 38.3479 36.0612 39.2078C35.2312 40.1644 34.4013 41.121 33.5713 42.081C33.0014 42.7276 32.4381 43.3776 31.8614 44.0442ZM23.4919 41.571C23.3819 41.4477 23.2719 41.3244 23.1653 41.1977C22.3287 40.2444 21.492 39.2945 20.6554 38.3412C19.9721 37.5612 19.2855 36.7846 18.6022 36.0047C17.8222 35.118 17.0423 34.2281 16.259 33.3415C15.639 32.6382 15.0224 31.9349 14.4024 31.2316C13.7525 30.495 13.1059 29.7583 12.4559 29.0217C12.4359 29.0017 12.4259 28.9684 12.3792 28.9684C12.3626 29.0151 12.3692 29.0617 12.3692 29.1117C12.3692 29.6983 12.3692 30.285 12.3692 30.8683C12.3692 31.2649 12.3726 31.6582 12.3992 32.0549C12.4226 32.4249 12.4559 32.7948 12.5059 33.1615C12.5825 33.7415 12.6892 34.3181 12.8259 34.8881C13.2092 36.4846 13.8191 37.9946 14.6558 39.4078C15.7157 41.2044 17.069 42.751 18.7089 44.0409C20.3321 45.3175 22.1287 46.2608 24.1052 46.8641C24.7218 47.0541 25.3485 47.2074 25.9851 47.3207C26.3051 47.3774 26.6251 47.4307 26.9484 47.464C27.1617 47.4874 27.375 47.5074 27.5917 47.5274C27.9517 47.5607 28.3116 47.5807 28.6716 47.5807C28.6983 47.5807 28.7316 47.5974 28.7516 47.5507C27.005 45.5641 25.2551 43.5742 23.4919 41.571ZM18.0056 33.8581C18.2589 34.1448 18.5089 34.4281 18.7622 34.7147C18.9055 34.8747 19.0455 35.0381 19.1888 35.2014C19.4522 35.5014 19.7155 35.8047 19.9821 36.1047C20.1588 36.3046 20.3354 36.5013 20.5088 36.7013C20.7787 37.0079 21.0487 37.3179 21.322 37.6279C21.4854 37.8112 21.6454 37.9946 21.8087 38.1812C22.0687 38.4779 22.3287 38.7778 22.592 39.0745C22.772 39.2778 22.952 39.4778 23.1286 39.6811C23.3853 39.9744 23.6419 40.2678 23.9019 40.5611C24.0752 40.7577 24.2485 40.9511 24.4185 41.1477C24.6918 41.461 24.9652 41.7743 25.2418 42.0843C25.4085 42.271 25.5751 42.4576 25.7385 42.6476C25.9918 42.9376 26.2451 43.2276 26.4984 43.5176C26.6851 43.7276 26.8717 43.9376 27.055 44.1475C27.335 44.4675 27.6183 44.7875 27.8983 45.1075C27.995 45.2175 28.0883 45.3275 28.185 45.4375C28.3583 45.6341 28.5283 45.8275 28.7016 46.0241C28.7249 46.0474 28.7516 46.0674 28.7816 46.0908C28.8183 46.0508 28.8516 46.0208 28.8816 45.9874C29.0316 45.8175 29.1783 45.6475 29.3249 45.4775C29.5616 45.2042 29.7949 44.9308 30.0315 44.6609C30.2549 44.4042 30.4782 44.1475 30.7015 43.8909C30.9448 43.6109 31.1848 43.3309 31.4281 43.0509C31.5781 42.8776 31.7314 42.7043 31.8814 42.531C32.1214 42.2543 32.3614 41.9777 32.5981 41.701C32.818 41.4477 33.038 41.1944 33.258 40.9411C33.498 40.6644 33.7347 40.3878 33.9746 40.1111C34.1946 39.8578 34.4146 39.6045 34.6346 39.3511C34.8779 39.0712 35.1179 38.7912 35.3612 38.5112C35.5112 38.3379 35.6645 38.1645 35.8145 37.9879C36.0512 37.7146 36.2878 37.4412 36.5212 37.1713C36.7445 36.9146 36.9678 36.658 37.1911 36.4013C37.4244 36.1313 37.6544 35.8613 37.8877 35.5947C38.1144 35.3347 38.3411 35.0747 38.5677 34.8147C38.8144 34.5314 39.061 34.2481 39.3043 33.9648C39.451 33.7948 39.601 33.6248 39.7476 33.4548C39.991 33.1748 40.2343 32.8948 40.4743 32.6149C40.6309 32.4349 40.7909 32.2515 40.9476 32.0715C41.1709 31.8149 41.3909 31.5549 41.6142 31.2983C41.8409 31.0383 42.0675 30.7783 42.2942 30.5183C42.5275 30.2483 42.7575 29.9783 42.9908 29.7117C43.2174 29.4517 43.4441 29.1917 43.6707 28.9317C43.7141 28.8817 43.7507 28.8317 43.7907 28.7784C43.7707 28.7551 43.7574 28.7351 43.7407 28.7151C43.5474 28.5051 43.3541 28.2951 43.1608 28.0851C42.7875 27.6818 42.4142 27.2752 42.0375 26.8718C41.7875 26.6052 41.5409 26.3352 41.2909 26.0686C41.0376 25.7952 40.7876 25.5252 40.5343 25.2519C40.2109 24.9019 39.8843 24.5553 39.561 24.2087C39.4277 24.0653 39.2943 23.922 39.1643 23.7787C38.871 23.462 38.581 23.1454 38.2911 22.8287C38.0644 22.5821 37.8344 22.3354 37.6078 22.0888C37.2211 21.6688 36.8311 21.2522 36.4445 20.8322C36.2078 20.5789 35.9745 20.3255 35.7412 20.0722C35.3579 19.6556 34.9713 19.2423 34.5879 18.8256C34.3613 18.579 34.1346 18.3323 33.9046 18.0857C33.5247 17.6723 33.1414 17.2624 32.7614 16.8524C32.5214 16.5924 32.2781 16.3291 32.0381 16.0691C31.7814 15.7925 31.5281 15.5191 31.2715 15.2425C31.0215 14.9758 30.7748 14.7058 30.5248 14.4392C30.1982 14.0859 29.8682 13.7359 29.5416 13.3826C29.5216 13.3593 29.5016 13.3393 29.4816 13.3159C29.2782 13.0959 29.0749 12.8726 28.8683 12.656C28.8483 12.636 28.8216 12.6226 28.7949 12.606C28.7649 12.636 28.7383 12.6593 28.7149 12.686C28.5983 12.8093 28.485 12.9359 28.3683 13.0626C28.0083 13.4526 27.6483 13.8426 27.2884 14.2325C27.0584 14.4825 26.8251 14.7325 26.5951 14.9825C26.2251 15.3825 25.8551 15.7858 25.4851 16.1858C25.2451 16.4458 25.0018 16.7091 24.7618 16.9691C24.3919 17.369 24.0219 17.7723 23.6519 18.1723C23.4219 18.4223 23.1886 18.6723 22.9586 18.9223C22.5886 19.3223 22.2187 19.7256 21.8487 20.1255C21.6187 20.3755 21.3854 20.6255 21.1554 20.8755C20.7854 21.2755 20.4154 21.6788 20.0455 22.0788C19.8155 22.3288 19.5821 22.5787 19.3522 22.8287C18.9822 23.2287 18.6122 23.632 18.2422 24.032C18.0122 24.282 17.7789 24.532 17.5489 24.782C17.1789 25.1819 16.809 25.5852 16.439 25.9852C16.209 26.2352 15.9757 26.4852 15.7457 26.7352C15.3757 27.1352 15.0057 27.5385 14.6358 27.9384C14.4458 28.1451 14.2525 28.3484 14.0625 28.5551C13.9525 28.6717 13.8458 28.7917 13.7358 28.9084C13.7191 28.9251 13.7058 28.9451 13.6925 28.9651C13.7025 28.9851 13.7058 28.9984 13.7158 29.0084C15.1491 30.6083 16.569 32.2249 18.0056 33.8581Z" fill="#FFB55D"/>
<path d="M32.1348 30.1182C32.1381 30.1149 32.1448 30.1149 32.1481 30.1182C32.1448 30.1182 32.1381 30.1216 32.1348 30.1182Z" fill="#FFB55D"/>
<path d="M45.1641 0.733398H12.366V5.19982H45.1641V0.733398Z" fill="#FF4840"/>
<path d="M45.1641 5.79956H12.366V10.166H45.1641V5.79956Z" fill="#027EC5"/>
<path d="M14.7125 7.98286V2.89648H16.2491C16.5824 2.89648 16.8391 3.00648 17.0124 3.22647C17.189 3.44644 17.2757 3.76642 17.2757 4.1864C17.2757 4.44305 17.2424 4.65971 17.179 4.83303C17.1124 5.00635 17.0157 5.13968 16.8857 5.23301C17.0557 5.33967 17.179 5.49299 17.2624 5.68965C17.3457 5.88964 17.389 6.13629 17.389 6.43294C17.389 6.92958 17.2857 7.30956 17.0791 7.57954C16.8724 7.84953 16.5791 7.98286 16.1991 7.98286H14.7125ZM15.3558 4.86303H16.1224C16.2891 4.86303 16.4091 4.8197 16.4858 4.7297C16.5624 4.63971 16.6024 4.49972 16.6024 4.30973C16.6024 4.12307 16.5658 3.98641 16.4891 3.90308C16.4158 3.81975 16.2891 3.77642 16.1191 3.77642H15.3558V4.86303ZM15.3558 7.06291H16.1524C16.3391 7.06291 16.4758 7.00958 16.5624 6.90292C16.6491 6.79625 16.6924 6.6296 16.6924 6.40294C16.6924 6.16629 16.6491 5.9963 16.5658 5.88964C16.4824 5.78631 16.3424 5.73298 16.1491 5.73298H15.3592V7.06291H15.3558Z" fill="white"/>
<path d="M17.9091 7.98286V2.89648H19.189C19.689 2.89648 20.0623 3.10647 20.3089 3.52977C20.5556 3.94975 20.6789 4.58971 20.6789 5.44633C20.6789 5.91297 20.6322 6.31961 20.5422 6.67626C20.4522 7.02958 20.3189 7.31623 20.1456 7.53288C20.0156 7.69287 19.8689 7.80953 19.7023 7.87953C19.5356 7.94952 19.3056 7.98619 19.0057 7.98619H17.9091V7.98286ZM18.569 7.06291H19.109C19.4223 7.06291 19.6456 6.93625 19.7856 6.68293C19.9256 6.42961 19.9956 6.0163 19.9956 5.44633C19.9956 4.87636 19.9289 4.45972 19.7989 4.19307C19.669 3.92641 19.4656 3.79309 19.189 3.79309H18.569V7.06291Z" fill="white"/>
<path d="M21.9987 2.89648H22.7753L23.9519 7.98286H23.2486L23.0286 6.93625H21.762L21.5454 7.98286H20.8387L21.9987 2.89648ZM22.3887 3.91308L21.9353 6.07963H22.842L22.3887 3.91308Z" fill="white"/>
<path d="M25.6019 7.98286V2.89648H26.2719V7.98286H25.6019Z" fill="white"/>
<path d="M26.9718 7.98286V2.89648H27.6751L29.0017 6.39294V2.89648H29.665V7.98286H28.9717L27.6384 4.48638V7.98286H26.9718Z" fill="white"/>
<path d="M30.3383 7.98286V2.89648H32.6181V3.77976H30.9982V4.93302H32.4148V5.81631H30.9982V7.98286H30.3383Z" fill="white"/>
<path d="M35.168 2.89648H35.9446L37.1212 7.98286H36.4179L36.1979 6.93625H34.9313L34.7147 7.98286H34.0081L35.168 2.89648ZM35.558 3.91308L35.1047 6.07963H36.0113L35.558 3.91308Z" fill="white"/>
<path d="M37.4579 7.98286V2.89648H38.4512L39.0978 6.76626L39.7378 2.89648H40.7344V7.98286H40.1044V3.87975L39.4411 7.98286H38.7545L38.0845 3.87975V7.98286H37.4579Z" fill="white"/>
<path d="M42.1809 7.98286L41.0543 2.89648H41.7976L42.4909 6.70293L43.1975 2.89648H43.9342L42.8209 7.98286H42.1809Z" fill="white"/>
<path d="M4.33313 38.8745C5.57639 38.5146 6.82299 38.1512 8.06625 37.7913C8.20624 38.2746 8.35956 38.7445 8.52289 39.2045C8.62955 39.5045 8.63621 39.7578 8.54289 39.9745C8.44622 40.1911 8.2529 40.3644 7.95959 40.4878C7.77626 40.5644 7.61294 40.5978 7.46628 40.5878C7.31962 40.5778 7.18963 40.5244 7.07297 40.4278C7.05964 40.6178 6.99964 40.7811 6.88965 40.9178C6.77965 41.0544 6.623 41.1711 6.41301 41.2577C6.06303 41.4044 5.75305 41.4177 5.47973 41.2844C5.20641 41.1511 4.99309 40.8844 4.84977 40.4844C4.66311 39.9578 4.49312 39.4212 4.33313 38.8745ZM6.81632 38.8479C6.89631 39.1012 6.97964 39.3478 7.06631 39.5945C7.12297 39.7545 7.1963 39.8578 7.28629 39.9078C7.37629 39.9578 7.48961 39.9545 7.62627 39.9011C7.7596 39.8511 7.84293 39.7778 7.87626 39.6878C7.90959 39.5978 7.89959 39.4712 7.84293 39.3112C7.7596 39.0745 7.6796 38.8379 7.60294 38.5945C7.33962 38.6779 7.07964 38.7645 6.81632 38.8479ZM5.21641 39.3612C5.30641 39.6412 5.39973 39.9178 5.49306 40.1911C5.55973 40.3844 5.64972 40.5111 5.75971 40.5678C5.86637 40.6244 6.00303 40.6211 6.16636 40.5611C6.33635 40.4944 6.44301 40.4078 6.48634 40.2945C6.52967 40.1845 6.51967 40.0345 6.44967 39.8411C6.35635 39.5812 6.26968 39.3178 6.18302 39.0479C5.85971 39.1545 5.53639 39.2578 5.21641 39.3612Z" fill="#1D1D1B"/>
<path d="M5.59973 42.3777C6.77966 41.8411 7.96293 41.3045 9.14286 40.7678C9.33951 41.2145 9.54617 41.6511 9.76616 42.0744C9.91282 42.3611 9.94948 42.6111 9.86948 42.8377C9.78949 43.0644 9.5895 43.2744 9.26619 43.4643C9.06286 43.5843 8.86954 43.6543 8.69289 43.6643C8.51623 43.6743 8.36624 43.6277 8.23958 43.521C8.25291 43.671 8.22291 43.8043 8.14625 43.9176C8.06959 44.031 7.9196 44.1576 7.69961 44.2976C7.56962 44.381 7.43963 44.461 7.30963 44.5443C7.3063 44.5476 7.30297 44.5476 7.2963 44.5509C7.09631 44.6743 6.99965 44.7843 6.99632 44.8809C6.96299 44.9009 6.92965 44.9209 6.89299 44.9409C6.763 44.7176 6.63967 44.4909 6.51635 44.2643C6.55301 44.2143 6.60301 44.1676 6.66634 44.1143C6.72967 44.0643 6.80966 44.011 6.90632 43.9543C7.02298 43.8843 7.14298 43.8177 7.25964 43.7477C7.46629 43.6243 7.59295 43.511 7.63295 43.411C7.67628 43.3077 7.65628 43.181 7.57295 43.021C7.46629 42.8077 7.35963 42.5944 7.2563 42.3744C6.803 42.5977 6.34969 42.8177 5.89638 43.041C5.79972 42.821 5.69973 42.6011 5.59973 42.3777ZM7.8696 42.0744C7.97959 42.3077 8.09292 42.5411 8.21291 42.7677C8.28958 42.9177 8.3829 43.0044 8.4929 43.0344C8.60289 43.0644 8.73288 43.0344 8.88954 42.9477C9.0362 42.8644 9.13286 42.771 9.17286 42.6644C9.21619 42.5577 9.20286 42.4411 9.13619 42.3111C9.01953 42.0844 8.90621 41.8544 8.79621 41.6211C8.48956 41.7744 8.17958 41.9244 7.8696 42.0744Z" fill="#1D1D1B"/>
<path d="M7.27625 45.5742C8.37285 44.8775 9.46945 44.1809 10.5661 43.481C10.6694 43.6509 10.776 43.8143 10.8827 43.9809C9.8061 44.7076 8.72616 45.4342 7.64956 46.1608C7.5229 45.9675 7.39957 45.7742 7.27625 45.5742Z" fill="#1D1D1B"/>
<path d="M9.9361 48.4406C9.70945 48.4806 9.51279 48.4672 9.3428 48.4072C9.17281 48.3472 9.02282 48.2339 8.89283 48.0706C8.60618 47.7073 8.52952 47.2873 8.66951 46.8306C8.8095 46.374 9.13615 45.974 9.63945 45.6141C10.1461 45.2541 10.6261 45.0741 11.0694 45.0541C11.516 45.0341 11.8527 45.1774 12.1026 45.4941C12.3193 45.7674 12.4126 46.0574 12.3793 46.3807C12.3493 46.704 12.1993 47.0206 11.926 47.3273C11.7893 47.174 11.656 47.0206 11.5227 46.864C11.6527 46.704 11.7227 46.544 11.7293 46.3907C11.7393 46.234 11.686 46.0874 11.576 45.9474C11.426 45.7607 11.2194 45.684 10.9427 45.7174C10.6694 45.7507 10.3627 45.894 10.0261 46.1474C9.68945 46.404 9.46946 46.6673 9.3728 46.9406C9.27947 47.214 9.31947 47.4639 9.49279 47.6839C9.62279 47.8473 9.79278 47.9339 9.9961 47.9439C10.1994 47.9539 10.4094 47.8839 10.6294 47.7373C10.4794 47.5606 10.3294 47.3806 10.1828 47.1973C10.3561 47.0573 10.5261 46.914 10.6994 46.774C10.9594 47.1006 11.2294 47.4139 11.5027 47.7206C10.9827 48.1939 10.4594 48.6672 9.93944 49.1439C9.83944 49.0339 9.73945 48.9205 9.64279 48.8072C9.73945 48.6839 9.83611 48.5639 9.9361 48.4406Z" fill="#1D1D1B"/>
<path d="M13.7625 47.4907C13.9159 47.6407 14.0725 47.7907 14.2325 47.9374C13.5926 49.1173 12.9993 50.3306 12.4526 51.5738C12.276 51.4272 12.1026 51.2772 11.9327 51.1239C12.056 50.8739 12.1826 50.6272 12.3093 50.3806C12.0126 50.1139 11.7227 49.8373 11.436 49.5506C11.1994 49.6939 10.9594 49.8339 10.7194 49.9706C10.5561 49.8039 10.3961 49.6373 10.2361 49.4639C11.446 48.8573 12.6226 48.1974 13.7625 47.4907ZM13.4592 48.2873C12.9826 48.6007 12.5026 48.9073 12.016 49.204C12.216 49.4006 12.4193 49.5939 12.6259 49.7806C12.8926 49.2773 13.1726 48.7806 13.4592 48.2873Z" fill="#1D1D1B"/>
<path d="M12.8059 51.8671C13.6259 50.8538 14.4458 49.8405 15.2658 48.8306C15.5391 49.0506 15.8191 49.2639 16.0991 49.4705C16.4324 49.7105 16.589 50.0138 16.5824 50.3971C16.5724 50.7771 16.3957 51.2471 16.0357 51.7971C15.8391 52.0971 15.6357 52.337 15.4158 52.5204C15.1958 52.7037 14.9691 52.817 14.7425 52.8637C14.5691 52.897 14.4025 52.8903 14.2425 52.8437C14.0825 52.797 13.8825 52.6904 13.6492 52.5204C13.3625 52.3037 13.0826 52.0871 12.8059 51.8671ZM13.7359 51.7004C13.8692 51.8037 14.0058 51.9037 14.1425 52.0037C14.3792 52.177 14.6091 52.217 14.8291 52.1304C15.0491 52.0437 15.2791 51.8171 15.5291 51.4571C15.7757 51.0971 15.9124 50.8005 15.9391 50.5705C15.9657 50.3405 15.8857 50.1572 15.6957 50.0205C15.5557 49.9172 15.4124 49.8138 15.2758 49.7072C14.7591 50.3705 14.2492 51.0371 13.7359 51.7004Z" fill="#1D1D1B"/>
<path d="M18.1423 50.7805C18.3257 50.8838 18.509 50.9838 18.6956 51.0805C18.359 52.3738 18.0757 53.687 17.8457 55.0169C17.6424 54.9203 17.4424 54.8236 17.2424 54.7236C17.3024 54.4536 17.3657 54.187 17.429 53.917C17.0824 53.7404 16.7391 53.5537 16.4024 53.357C16.2091 53.5537 16.0158 53.7504 15.8158 53.947C15.6225 53.8337 15.4292 53.717 15.2358 53.597C16.2491 52.6937 17.2191 51.7538 18.1423 50.7805ZM18.039 51.6171C17.659 52.0404 17.2691 52.4571 16.8724 52.8704C17.1091 53.0037 17.3491 53.1337 17.589 53.2604C17.7324 52.7104 17.8824 52.1604 18.039 51.6171Z" fill="#1D1D1B"/>
<path d="M19.5022 55.7268C19.9855 54.5202 20.4721 53.3136 20.9554 52.1104C21.5254 52.3303 22.1054 52.5303 22.692 52.7036C22.6254 52.9203 22.5587 53.1336 22.492 53.3503C22.0654 53.2236 21.6387 53.0836 21.2188 52.9336C21.1154 53.2103 21.0121 53.4869 20.9088 53.7603C21.2921 53.8969 21.6787 54.0269 22.0654 54.1436C21.9987 54.3602 21.9287 54.5735 21.8621 54.7902C21.4621 54.6702 21.0654 54.5369 20.6721 54.3936C20.4788 54.9102 20.2855 55.4302 20.0922 55.9468C19.8955 55.8768 19.6989 55.8035 19.5022 55.7268Z" fill="#1D1D1B"/>
<path d="M22.4787 54.6703C22.6554 54.067 22.912 53.6204 23.2387 53.3237C23.5653 53.0271 23.9086 52.9237 24.2886 53.0071C24.6686 53.0904 24.9352 53.3271 25.1019 53.7337C25.2686 54.137 25.3086 54.647 25.2052 55.2669C25.1019 55.8836 24.8919 56.3569 24.5619 56.6735C24.232 56.9902 23.8286 57.1035 23.3787 57.0035C22.9254 56.9035 22.612 56.6335 22.4521 56.2102C22.2887 55.7869 22.3054 55.2736 22.4787 54.6703ZM23.0587 54.8236C22.9487 55.237 22.932 55.5769 23.0154 55.8403C23.0987 56.1036 23.272 56.2669 23.5287 56.3236C23.7886 56.3802 24.0186 56.3069 24.212 56.1002C24.4019 55.8969 24.5353 55.5836 24.6186 55.1636C24.6986 54.7436 24.6953 54.4037 24.6086 54.147C24.5219 53.8904 24.3653 53.737 24.132 53.687C23.902 53.637 23.6953 53.7104 23.5053 53.907C23.3187 54.1037 23.1687 54.407 23.0587 54.8236Z" fill="#1D1D1B"/>
<path d="M25.5052 57.2734C25.6886 55.9901 25.8719 54.7068 26.0552 53.4236C26.4752 53.4802 26.8952 53.5269 27.3185 53.5602C27.6018 53.5836 27.8084 53.6869 27.9351 53.8736C28.0651 54.0602 28.1218 54.3402 28.1051 54.7135C28.0951 54.9502 28.0484 55.1468 27.9684 55.3001C27.8884 55.4535 27.7785 55.5568 27.6385 55.6068C27.7585 55.6735 27.8418 55.7701 27.8884 55.8968C27.9351 56.0234 27.9551 56.2168 27.9518 56.4767C27.9484 56.6301 27.9451 56.7834 27.9418 56.9367C27.9418 56.9401 27.9418 56.9467 27.9418 56.9534C27.9351 57.1867 27.9684 57.3267 28.0384 57.38C28.0351 57.42 28.0351 57.46 28.0318 57.5C27.8018 57.49 27.5685 57.4767 27.3385 57.4634C27.3185 57.4067 27.3085 57.34 27.3018 57.26C27.2951 57.18 27.2951 57.0834 27.3018 56.9734C27.3085 56.8367 27.3151 56.7001 27.3251 56.5634C27.3351 56.3234 27.3151 56.1568 27.2585 56.0701C27.2051 55.9801 27.0985 55.9301 26.9385 55.9168C26.7285 55.8968 26.5185 55.8768 26.3085 55.8534C26.2485 56.3534 26.1919 56.8534 26.1319 57.3567C25.9252 57.3267 25.7152 57.3 25.5052 57.2734ZM26.3919 55.1768C26.6185 55.2035 26.8452 55.2235 27.0718 55.2435C27.2185 55.2568 27.3318 55.2235 27.4051 55.1468C27.4818 55.0702 27.5251 54.9402 27.5351 54.7635C27.5485 54.5935 27.5218 54.4635 27.4651 54.3735C27.4051 54.2835 27.3151 54.2302 27.1852 54.2202C26.9585 54.2002 26.7352 54.1802 26.5119 54.1535C26.4719 54.4969 26.4319 54.8368 26.3919 55.1768Z" fill="#1D1D1B"/>
<path d="M28.6851 57.5168C28.7084 56.2202 28.7351 54.9269 28.7584 53.6303C28.945 53.6336 29.135 53.6336 29.3217 53.6336C29.6817 54.5203 30.085 55.4002 30.5316 56.2702C30.4816 55.3802 30.4316 54.4936 30.385 53.6036C30.5616 53.5936 30.7383 53.5836 30.9149 53.5703C31.0183 54.8636 31.1216 56.1535 31.2249 57.4468C31.0083 57.4634 30.7883 57.4768 30.5716 57.4868C30.105 56.6201 29.6783 55.7402 29.2984 54.8502C29.3017 55.7402 29.3084 56.6301 29.3117 57.5201C29.1017 57.5234 28.8917 57.5201 28.6851 57.5168Z" fill="#1D1D1B"/>
<path d="M31.6482 55.4602C31.5849 54.8335 31.6549 54.3269 31.8449 53.9336C32.0349 53.5403 32.3149 53.3203 32.6982 53.2603C33.0815 53.2003 33.4181 53.3236 33.7281 53.6403C34.0348 53.9569 34.2647 54.4169 34.4014 55.0269C34.5381 55.6368 34.5214 56.1535 34.3347 56.5668C34.1481 56.9801 33.8181 57.2301 33.3581 57.3034C32.9015 57.3734 32.5082 57.2367 32.1982 56.9001C31.8916 56.5668 31.7149 56.0801 31.6482 55.4602ZM32.2449 55.3935C32.2982 55.8168 32.4115 56.1401 32.5882 56.3534C32.7648 56.5701 32.9882 56.6568 33.2481 56.6168C33.5115 56.5768 33.6981 56.4234 33.7981 56.1635C33.8981 55.9035 33.9048 55.5635 33.8214 55.1468C33.7381 54.7269 33.6048 54.4136 33.4281 54.2069C33.2515 53.9969 33.0482 53.9136 32.8115 53.9502C32.5782 53.9869 32.4149 54.1269 32.3149 54.3802C32.2149 54.6269 32.1882 54.9669 32.2449 55.3935Z" fill="#1D1D1B"/>
<path d="M36.1446 56.6069C35.4513 55.4503 34.808 54.2703 34.218 53.0737C34.4113 53.0304 34.608 52.9837 34.8013 52.9337C35.2313 53.827 35.6813 54.7103 36.1579 55.5869C36.0912 54.597 36.0012 53.6104 35.8879 52.6304C36.0779 52.5738 36.2646 52.5104 36.4512 52.4504C36.5979 53.7704 36.6912 55.1036 36.7345 56.4436C36.5379 56.5002 36.3412 56.5535 36.1446 56.6069Z" fill="#1D1D1B"/>
<path d="M37.3478 54.2037C37.1345 53.6104 37.0812 53.1004 37.1712 52.6737C37.2611 52.2471 37.4811 51.9671 37.8411 51.8171C38.2011 51.6671 38.5611 51.7071 38.9377 51.9405C39.3144 52.1738 39.651 52.5637 39.931 53.1271C40.2143 53.687 40.321 54.1937 40.2376 54.6436C40.1543 55.0903 39.891 55.4136 39.4644 55.5936C39.0344 55.7736 38.6177 55.7336 38.2344 55.4769C37.8544 55.2203 37.5645 54.7936 37.3478 54.2037ZM37.9144 53.997C38.0711 54.397 38.2578 54.6803 38.4844 54.8503C38.7077 55.0169 38.9477 55.0503 39.1944 54.9503C39.441 54.847 39.5877 54.6536 39.621 54.377C39.6577 54.1003 39.581 53.7703 39.3977 53.3804C39.2144 52.9937 39.0077 52.7204 38.7877 52.5604C38.5644 52.4004 38.3444 52.3671 38.1244 52.4571C37.9044 52.5471 37.7811 52.7237 37.7411 52.9937C37.7011 53.2604 37.7578 53.597 37.9144 53.997Z" fill="#1D1D1B"/>
<path d="M42.5675 53.9204C41.8976 52.8038 41.2243 51.6905 40.5543 50.5739C40.8543 50.3972 41.1476 50.2139 41.4376 50.0239C41.7776 49.8006 42.1209 49.7539 42.4775 49.8973C42.8342 50.0372 43.2142 50.3672 43.6108 50.8905C43.8241 51.1772 43.9808 51.4538 44.0775 51.7205C44.1708 51.9905 44.2008 52.2405 44.1641 52.4704C44.1374 52.6438 44.0708 52.7971 43.9708 52.9304C43.8708 53.0637 43.7008 53.2137 43.4608 53.3671C43.1642 53.557 42.8675 53.7404 42.5675 53.9204ZM42.7275 52.9971C42.8709 52.9071 43.0108 52.8171 43.1508 52.7271C43.3942 52.5671 43.5142 52.3671 43.5075 52.1338C43.5008 51.9005 43.3708 51.6038 43.1142 51.2472C42.8609 50.8905 42.6275 50.6639 42.4175 50.5572C42.2076 50.4539 42.0109 50.4639 41.8142 50.5939C41.6676 50.6905 41.5209 50.7839 41.3743 50.8739C41.8276 51.5838 42.2776 52.2905 42.7275 52.9971Z" fill="#1D1D1B"/>
<path d="M45.3107 52.0438C44.5007 51.0238 43.6941 50.0005 42.8842 48.9806C43.0275 48.8673 43.1708 48.7506 43.3141 48.6306C44.1474 49.6306 44.984 50.6305 45.8173 51.6338C45.6507 51.7704 45.4807 51.9071 45.3107 52.0438Z" fill="#1D1D1B"/>
<path d="M47.9206 49.6639C47.1473 48.924 46.3774 48.1807 45.6041 47.4407C45.4107 47.6441 45.2141 47.844 45.0141 48.0374C44.8508 47.8707 44.6908 47.7041 44.5275 47.5374C45.0474 47.0308 45.5441 46.4941 46.0174 45.9275C46.194 46.0775 46.3707 46.2275 46.5507 46.3775C46.3707 46.5941 46.1874 46.8074 46.0007 47.0141C46.7907 47.7341 47.5806 48.4573 48.3706 49.1773C48.2239 49.3406 48.0706 49.504 47.9206 49.6639Z" fill="#1D1D1B"/>
<path d="M46.734 45.0142C46.8673 44.8342 46.9973 44.6542 47.1273 44.4675C48.3806 44.9442 49.6638 45.3608 50.9704 45.7208C50.8404 45.9274 50.7104 46.1308 50.5771 46.3341C50.3138 46.2474 50.0538 46.1574 49.7905 46.0641C49.5538 46.4108 49.3105 46.7507 49.0605 47.0807C49.2305 47.3007 49.3972 47.524 49.5638 47.744C49.4172 47.934 49.2705 48.1173 49.1205 48.3006C48.3672 47.1674 47.5706 46.0708 46.734 45.0142ZM47.5606 45.2075C47.9273 45.6441 48.2873 46.0908 48.6406 46.5441C48.8139 46.3108 48.9839 46.0774 49.1505 45.8341C48.6172 45.6341 48.0873 45.4241 47.5606 45.2075Z" fill="#1D1D1B"/>
<path d="M51.227 45.3042C50.1204 44.6209 49.0171 43.9376 47.9105 43.2543C48.1505 42.8543 48.3805 42.441 48.6005 42.0144C48.7471 41.7277 48.9338 41.551 49.1638 41.4877C49.3938 41.4244 49.6804 41.4711 50.0171 41.631C50.2304 41.7344 50.3937 41.8544 50.5004 42.001C50.607 42.1443 50.6537 42.301 50.637 42.4677C50.7537 42.3677 50.877 42.3177 51.0137 42.3143C51.1503 42.3143 51.337 42.3643 51.577 42.471C51.717 42.5343 51.857 42.5943 51.997 42.6577C52.0003 42.6577 52.0036 42.661 52.0103 42.6643C52.2203 42.761 52.3669 42.781 52.4469 42.7243C52.4836 42.741 52.5169 42.7576 52.5536 42.7743C52.4436 43.0143 52.3303 43.2543 52.2136 43.4876C52.1536 43.4843 52.0836 43.4709 52.007 43.4476C51.9303 43.4243 51.8403 43.3876 51.7403 43.3376C51.617 43.2776 51.4936 43.2176 51.3737 43.1576C51.157 43.0543 50.9937 43.0143 50.887 43.0343C50.7804 43.0576 50.687 43.1476 50.6037 43.3076C50.4937 43.5176 50.3804 43.7243 50.2671 43.9309C50.7037 44.1842 51.1403 44.4376 51.577 44.6942C51.4637 44.9009 51.347 45.1042 51.227 45.3042ZM49.6838 43.5909C49.8071 43.3709 49.9304 43.1476 50.0471 42.9176C50.1237 42.771 50.1437 42.641 50.1037 42.531C50.0637 42.4243 49.9671 42.3277 49.8071 42.2477C49.6571 42.171 49.5271 42.1443 49.4171 42.171C49.3071 42.1977 49.2204 42.2743 49.1538 42.401C49.0371 42.6277 48.9171 42.851 48.7938 43.0676C49.0905 43.2476 49.3871 43.4176 49.6838 43.5909Z" fill="#1D1D1B"/>
<path d="M51.0238 41.4444C50.4505 41.1878 50.0538 40.8545 49.8172 40.4545C49.5838 40.0579 49.5438 39.6545 49.7005 39.2212C49.8572 38.7879 50.1438 38.4946 50.5838 38.3279C51.0204 38.1646 51.5404 38.158 52.1404 38.3313C52.7403 38.5046 53.177 38.7946 53.4336 39.2146C53.6903 39.6345 53.7303 40.1178 53.5436 40.6345C53.357 41.1511 53.027 41.4844 52.567 41.6244C52.1104 41.7678 51.5971 41.6978 51.0238 41.4444ZM51.2937 40.8011C51.6904 40.9645 52.027 41.0145 52.3103 40.9445C52.5903 40.8745 52.7903 40.6912 52.897 40.3945C53.0036 40.0945 52.9736 39.8212 52.8037 39.5779C52.6337 39.3346 52.3437 39.1512 51.937 39.0212C51.5304 38.8912 51.1904 38.8679 50.9138 38.9446C50.6371 39.0246 50.4571 39.1946 50.3605 39.4612C50.2671 39.7245 50.2971 39.9679 50.4605 40.2012C50.6171 40.4345 50.8971 40.6378 51.2937 40.8011Z" fill="#1D1D1B"/>
</g>
<defs>
<clipPath id="clip0_1218_122">
<rect width="57.63" height="60.03" fill="white"/>
</clipPath>
</defs>
</svg>
